<svg width="125" height="92" viewBox="0 0 125 92" fill="none" xmlns="http://www.w3.org/2000/svg">
<path d="M60.6381 49.1864C60.3953 48.4087 60.1075 47.6466 59.7909 46.8952C59.3748 45.906 58.9118 44.9399 58.3794 44.0077C57.7418 42.8921 57.0329 41.8234 56.222 40.8267C55.8247 40.3387 55.4149 39.8576 54.9826 39.4014C54.1792 38.5543 53.3302 37.7559 52.4092 37.0333C51.3612 36.2099 50.2643 35.4609 49.1106 34.7965C48.2221 34.2853 47.308 33.8217 46.3733 33.4012C45.6519 33.0752 44.9136 32.7931 44.1815 32.4952C44.0764 32.4533 43.9606 32.4345 43.8155 32.3958C43.7504 32.6354 43.793 32.8437 43.8136 33.0508C43.828 33.2016 43.8499 33.3511 43.8637 33.5026C43.9087 33.9787 43.9519 34.4542 43.9976 34.9297C44.0163 35.1268 44.0395 35.3245 44.0608 35.5204C44.0902 35.7988 44.1064 36.0791 44.1546 36.3544C44.2209 36.7323 44.2472 37.114 44.3248 37.4919C44.4224 37.9705 44.5106 38.4498 44.622 38.9266C44.7715 39.5654 44.9887 40.1773 45.2527 40.7742C45.4579 41.2359 45.7326 41.6558 46.0892 42.0143C46.4846 42.4109 46.9702 42.6575 47.507 42.8039C47.8999 42.9109 48.296 43.0041 48.6908 43.1048C49.1081 43.2118 49.5323 43.2963 49.9396 43.4327C50.4226 43.596 50.9057 43.7593 51.3818 43.947C52.4592 44.3712 53.4816 44.8961 54.4457 45.5343C55.3042 46.1024 56.0925 46.7556 56.8258 47.4802C57.5585 48.2053 58.2236 48.9849 58.8261 49.8171C59.6952 51.019 60.4504 52.2923 61.1643 53.5893C61.3438 53.9165 61.519 54.2456 61.6973 54.5728C61.7543 54.678 61.8093 54.7856 61.9557 54.8619C61.9013 54.514 61.8619 54.2024 61.8012 53.8965C61.6898 53.3252 61.5628 52.7578 61.4471 52.1865C61.24 51.1698 60.9472 50.175 60.6381 49.1864Z" fill="#CFB53B"/>
<path d="M77.3424 58.6396C77.7253 58.6065 78.1101 58.5683 78.4936 58.5589C79.1819 58.5439 79.8701 58.547 80.559 58.5458C81.433 58.5427 82.3052 58.5671 83.1768 58.6647C83.7205 58.7254 84.268 58.7704 84.8105 58.8399C85.2616 58.8981 85.7108 58.9675 86.1588 59.047C86.5836 59.122 87.0041 59.2159 87.4258 59.3022C87.6992 59.3586 87.9732 59.4111 88.2441 59.4781C88.5376 59.55 88.826 59.6401 89.1176 59.7202C89.5318 59.8328 89.9479 59.9348 90.3589 60.0562C90.7475 60.1726 91.131 60.3052 91.5152 60.436C91.9888 60.5955 92.465 60.7476 92.9305 60.9259C93.5393 61.1586 94.1424 61.4045 94.7393 61.6629C95.4013 61.9501 96.067 62.2267 96.6995 62.5758C96.7997 62.6321 96.9135 62.6621 97.0368 62.7097C97.1738 62.597 97.2933 62.4738 97.4097 62.343C97.5561 62.1772 97.7056 62.0133 97.8583 61.8525C98.1968 61.4977 98.539 61.1474 98.8775 60.7926C98.9901 60.675 99.0959 60.5511 99.2048 60.4303C99.2229 60.2138 99.4819 60.2408 99.557 60.0818C99.5627 60.0712 99.5664 60.0606 99.5752 60.0368C99.4782 59.9698 99.3818 59.8954 99.2786 59.8341C99.0815 59.7158 98.8794 59.6057 98.6817 59.4881C97.8702 59.0032 97.0049 58.6215 96.1546 58.2142C95.4532 57.8788 94.7274 57.591 94.0029 57.3063C93.3541 57.0504 92.694 56.8258 92.0376 56.5912C91.8624 56.5286 91.6835 56.4773 91.5045 56.426C90.8901 56.2489 90.277 56.065 89.6601 55.8992C89.1651 55.7666 88.6677 55.6414 88.1647 55.5457C87.9363 55.5019 87.7111 55.44 87.4827 55.4005C87.1048 55.3336 86.7213 55.2942 86.3452 55.221C85.8979 55.1327 85.4455 55.0914 84.995 55.0289C84.8461 55.0082 84.6959 54.9801 84.5452 54.9663C84.2198 54.9363 83.8913 54.9344 83.5697 54.8818C83.0135 54.7905 82.4504 54.8499 81.8954 54.7655C80.3919 54.783 78.8859 54.7173 77.3849 54.8793C76.8293 54.94 76.2706 54.9657 75.7169 55.0439C75.1857 55.1183 74.6526 55.174 74.1233 55.2548C73.7203 55.3154 73.3224 55.4011 72.922 55.4794C72.6373 55.5344 72.3526 55.5945 72.0679 55.6558C71.5104 55.7753 70.9523 55.8898 70.3974 56.0224C69.9218 56.1357 69.4501 56.2677 68.979 56.396C68.5748 56.5067 68.1668 56.6074 67.7708 56.7413C67.2546 56.9165 66.7284 57.0636 66.2178 57.2582C65.8281 57.4064 65.427 57.5291 65.0322 57.6661C64.7131 57.7768 64.3952 57.8907 64.0805 58.0121C63.926 58.0722 63.7871 58.0684 63.6482 57.9783C63.4217 57.8313 63.1696 57.7437 62.9168 57.653C62.5264 57.5141 62.1353 57.5128 61.7493 57.6386C61.5071 57.718 61.2669 57.8188 61.0473 57.9458C60.8439 58.0634 60.6593 58.0853 60.4541 57.9814C60.4134 57.9608 60.3684 57.9452 60.3246 57.9295C59.7346 57.7162 59.1471 57.494 58.5527 57.2913C58.004 57.1036 57.4484 56.9322 56.894 56.7601C56.4717 56.6293 56.0481 56.5017 55.6214 56.3841C55.1953 56.2677 54.7642 56.1657 54.335 56.0594C53.8263 55.933 53.3189 55.8035 52.809 55.6833C52.5487 55.622 52.2847 55.5751 52.0212 55.5269C51.6546 55.46 51.2886 55.393 50.9207 55.3348C50.3576 55.2447 49.797 55.1396 49.2282 55.0871C48.7877 55.047 48.3542 54.9532 47.9087 54.9375C47.5489 54.925 47.1916 54.8506 46.8313 54.8287C46.4008 54.803 45.9691 54.7849 45.5386 54.7736C44.5832 54.7486 43.6253 54.7429 42.6705 54.7855C42.1487 54.808 41.6225 54.8024 41.1001 54.8806C40.5714 54.9594 40.032 54.9669 39.5015 55.0439C39.3744 55.062 39.2481 55.0877 39.121 55.0983C38.6205 55.1377 38.1306 55.2479 37.6369 55.3223C37.5105 55.3417 37.3848 55.3636 37.259 55.3874C37.1439 55.4087 37.03 55.4312 36.9168 55.4575C36.8379 55.4756 36.7604 55.5038 36.6809 55.5207C36.3393 55.5907 35.9952 55.6514 35.6554 55.7296C35.3044 55.811 34.9559 55.9048 34.6074 55.9987C34.2039 56.1075 33.7984 56.2126 33.3992 56.3372C32.8674 56.5036 32.3406 56.6844 31.8119 56.8634C31.0723 57.1124 30.3453 57.3964 29.6295 57.7061C29.0645 57.9508 28.5058 58.2104 27.9471 58.4695C27.2826 58.7792 26.6207 59.0939 25.98 59.4518C25.8198 59.5412 25.6796 59.6733 25.4894 59.7077C25.4725 59.7108 25.46 59.7402 25.4456 59.7577C25.4488 59.8384 25.6164 59.8628 25.5245 59.9892C25.4494 59.9461 25.3849 59.8966 25.3124 59.8704C25.1947 59.8278 25.2022 60.0092 25.0959 60.0042C25.0734 60.003 25.049 60.0312 25.0095 60.0543C25.4306 60.4034 25.7879 60.782 26.1126 61.1937C26.1345 61.2199 26.1595 61.245 26.1839 61.27C26.5856 61.6917 26.9879 62.114 27.3902 62.5345C27.4453 62.592 27.5054 62.6459 27.5692 62.7059C27.7156 62.6409 27.8532 62.5814 27.989 62.5176C28.5146 62.2705 29.0314 62.0002 29.5682 61.778C30.62 61.3445 31.6649 60.8902 32.7529 60.5467C33.2729 60.3815 33.7872 60.2013 34.3058 60.0318C34.4823 59.9742 34.6606 59.9217 34.8402 59.8747C35.2794 59.7609 35.7217 59.6626 36.1572 59.54C36.7178 59.3817 37.2891 59.2722 37.8603 59.1608C38.2601 59.0826 38.6693 59.047 39.0654 58.9537C39.5215 58.8474 39.9876 58.8249 40.4475 58.7548C40.781 58.7028 41.1245 58.7166 41.4573 58.6615C41.8734 58.5908 42.2913 58.5677 42.7099 58.5571C43.5734 58.537 44.4374 58.5377 45.3021 58.5352C45.6525 58.5352 46.0029 58.5364 46.352 58.5608C46.8869 58.5977 47.42 58.6559 47.9537 58.7035C48.5932 58.7592 49.227 58.8543 49.8583 58.9594C50.5484 59.0732 51.2354 59.2015 51.9224 59.3285C52.162 59.3723 52.3998 59.4299 52.6363 59.4906C52.9066 59.5588 53.1712 59.6539 53.444 59.7114C54.0484 59.8378 54.6347 60.0293 55.2247 60.2051C55.8147 60.3809 56.3972 60.5855 56.9785 60.7901C57.5153 60.9791 58.0534 61.1686 58.5796 61.387C59.418 61.733 60.2464 62.1053 61.0804 62.4625C61.3908 62.5964 61.7123 62.699 62.0408 62.7822C62.226 62.8292 62.41 62.8279 62.5945 62.781C62.9337 62.6947 63.264 62.5858 63.585 62.4431C64.658 61.9657 65.7361 61.499 66.8354 61.0854C67.9998 60.6468 69.1854 60.2633 70.3805 59.9154C70.5919 59.8528 70.8059 59.7959 71.0193 59.7427C71.2783 59.6789 71.5405 59.6245 71.8001 59.5613C72.1161 59.4843 72.4283 59.3848 72.7474 59.3273C73.3324 59.2228 73.9118 59.0951 74.4993 59.0038C75.1331 58.9062 75.7657 58.8073 76.4032 58.7391C76.7167 58.7079 77.0295 58.6672 77.3424 58.6396ZM99.0765 59.8904C99.0971 59.8848 99.1265 59.9098 99.1716 59.9304C99.1322 59.9623 99.1115 59.9955 99.0871 59.9967C99.0652 59.9986 99.0396 59.9692 99.0158 59.9536C99.0352 59.9323 99.0521 59.8979 99.0765 59.8904ZM98.4308 59.54C98.4502 59.5444 98.469 59.5538 98.4877 59.5613C98.469 59.57 98.4502 59.58 98.4308 59.5844C98.4252 59.5857 98.4095 59.5707 98.4095 59.5631C98.4095 59.555 98.4252 59.5394 98.4308 59.54ZM26.3328 61.1855C26.3278 61.1861 26.321 61.1718 26.3147 61.1636C26.3322 61.1574 26.3497 61.1499 26.3679 61.1474C26.3723 61.1467 26.3791 61.1618 26.3842 61.1705C26.3673 61.1768 26.3504 61.1836 26.3328 61.1855Z" fill="#CFB53B"/>
<path d="M49.0712 25.2204C48.9041 25.186 48.7358 25.1459 48.5781 25.0852C47.2292 24.5615 45.9528 23.8902 44.7227 23.1338C44.4224 22.9486 44.1477 22.6927 43.9237 22.4186C43.5014 21.9005 43.1035 21.3606 42.735 20.8031C42.1956 19.9866 41.4636 19.4867 40.5038 19.3153C39.9832 19.2233 39.4633 19.1307 39.0128 19.0506C39.2455 19.533 39.534 20.0267 39.7292 20.5541C40.1734 21.7542 41.0888 22.3673 42.2713 22.5913C43.0853 22.7458 43.833 23.0092 44.5469 23.4191C45.2596 23.8276 46.0016 24.1855 46.7224 24.5809C47.0277 24.7492 47.3218 24.9413 47.5971 25.1547C47.6847 25.2216 47.7654 25.4287 47.7241 25.5019C47.6603 25.6139 47.4882 25.7316 47.3643 25.7291C47.1535 25.7253 46.9326 25.6552 46.7368 25.5664C46.352 25.3906 45.9897 25.1628 45.6024 24.9951C45.3609 24.89 45.0881 24.7899 44.8322 24.7968C44.0232 24.8174 43.2386 25.002 42.4822 25.2942C42.292 25.3681 42.1043 25.4475 41.8909 25.5339C42.4572 25.8611 42.9708 26.1764 43.502 26.4605C44.1183 26.7902 44.774 26.9842 45.4792 26.8146C45.8652 26.7226 46.2425 26.5887 46.6192 26.4617C47.3587 26.2115 48.0782 25.8742 48.8359 25.7159C49.8846 25.4963 50.9063 25.8041 51.898 26.1451C52.0419 26.1939 52.1526 26.3441 52.2778 26.4473C52.1345 26.5262 51.9931 26.6688 51.8473 26.6745C51.328 26.6914 50.8062 26.6745 50.2869 26.6469C49.73 26.6169 49.1707 26.5643 48.6657 26.8659C48.1971 27.1462 47.7422 27.4478 47.2892 27.7356C47.4432 27.8188 47.5933 27.9227 47.7585 27.9859C48.0601 28.1023 48.3642 28.2468 48.6789 28.2868C49.6493 28.4113 50.509 28.0948 51.2948 27.5385C51.6277 27.3026 51.9643 27.0718 52.3128 26.8622C52.8697 26.5262 53.4359 26.5731 53.9834 26.8884C54.4683 27.1675 54.4683 27.4159 53.9821 27.6718C52.9341 28.2243 51.8354 28.6547 50.6973 28.9832C49.9046 29.2103 49.0931 29.3192 48.2778 29.1659C47.6966 29.057 47.1341 28.8481 46.556 28.716C46.148 28.6222 45.7213 28.5027 45.3134 28.5333C44.2866 28.6078 43.4407 29.1778 42.5485 29.6514C43.1886 29.9699 43.8017 30.2865 44.4268 30.5768C44.5976 30.6563 44.8047 30.68 44.9974 30.69C45.5611 30.7163 46.0961 30.5649 46.6173 30.3703C47.2042 30.1514 47.7741 29.8773 48.3735 29.7046C48.8359 29.5726 49.3315 29.5469 49.8145 29.5063C49.9096 29.4975 50.0748 29.617 50.1035 29.7102C50.1336 29.8053 50.0704 29.9937 49.9872 30.0481C49.7676 30.1914 49.5185 30.2934 49.2745 30.3941C48.8553 30.5687 48.4236 30.7138 48.0119 30.904C47.8498 30.9785 47.6797 31.1174 47.5977 31.2713C47.3775 31.6874 47.1898 32.1247 46.9814 32.5852C47.0196 32.6021 47.0577 32.6209 47.0959 32.6384C47.5001 32.4639 47.8999 32.4194 48.3116 32.4313C48.4805 32.4357 48.6563 32.415 48.8184 32.3669C49.5874 32.1441 49.9778 31.556 50.208 30.8452C50.4865 29.983 51.0433 29.3586 51.8073 28.9113C52.0488 28.7699 52.3278 28.6766 52.6012 28.6109C52.9366 28.5283 53.1324 28.7211 53.0667 29.0627C53.0367 29.2216 52.9391 29.3761 52.8434 29.5125C52.6688 29.7603 52.5381 30.0143 52.5712 30.3272C52.6037 30.6375 52.8991 30.8646 53.2363 30.8396C53.556 30.8146 53.7663 30.5874 53.7018 30.2533C53.6536 30.0049 53.5291 29.7659 53.4052 29.5413C53.2983 29.3455 53.2469 29.1496 53.347 28.9601C53.5842 28.5083 53.9014 28.1379 54.4245 27.994C55.0226 27.8295 55.6258 27.8 56.2427 27.842C57.8794 27.9527 59.0432 28.8499 60.0105 30.0781C60.0731 30.157 60.1125 30.2671 60.1256 30.3672C60.1519 30.5762 60.0437 30.6719 59.8478 30.5949C59.6382 30.513 59.4474 30.3822 59.2459 30.2765C58.9444 30.1182 58.6503 29.9386 58.3356 29.8116C57.2894 29.3874 56.1739 29.5044 55.0871 29.3987C55.4306 29.7265 55.7853 30.0262 56.0913 30.3691C56.518 30.8471 57.0529 31.0805 57.6636 31.1843C58.35 31.302 59.0282 31.2231 59.7077 31.1105C60.7807 30.9347 61.4189 31.4596 61.4421 32.5445C61.4489 32.8705 61.4502 33.2034 61.3895 33.5206C61.2931 34.0224 61.1774 34.5242 61.0047 35.0041C60.8527 35.4233 60.6387 35.4658 60.2645 35.2149C59.7083 34.842 59.4061 34.2971 59.239 33.6589C59.1483 33.3141 59.0595 32.96 58.8999 32.6465C58.594 32.0446 57.7781 31.6405 57.2087 31.7568C57.2181 31.8457 57.2237 31.9345 57.2363 32.0227C57.3551 32.838 57.6698 33.5137 58.4601 33.9048C58.7003 34.023 58.9062 34.2339 59.0901 34.4366C59.184 34.5392 59.1946 34.7175 59.2434 34.8633C59.0995 34.8439 58.9393 34.8583 58.8142 34.7989C58.2405 34.5255 57.6917 34.1932 57.1042 33.9573C56.5224 33.724 56.0368 33.3836 55.5826 32.9631C54.1986 31.683 53.3702 31.5209 51.5119 31.6742C51.7891 32.034 52.0888 32.415 52.3791 32.8036C52.8246 33.4011 53.3408 33.8948 54.1273 33.9742C54.7342 34.0362 55.3423 34.0969 55.9517 34.1238C56.7858 34.1594 57.561 34.3628 58.2624 34.8201C58.3775 34.8952 58.4907 34.9822 58.5827 35.0836C58.7185 35.2318 58.6753 35.3607 58.4751 35.3951C58.2999 35.4245 58.116 35.4427 57.9408 35.422C57.4803 35.367 57.0216 35.2888 56.5624 35.2181C56.0074 35.133 55.4487 35.0823 54.9475 35.3989C54.4614 35.7061 53.9978 36.0515 53.4609 36.4225C54.0272 36.5564 54.5183 36.664 55.0051 36.7879C55.6627 36.9556 56.3084 36.9093 56.9165 36.6227C57.4302 36.3812 57.9164 36.0778 58.4163 35.805C58.5589 35.7274 58.7003 35.6404 58.853 35.5922C59.8641 35.2725 61.0009 35.9808 61.2518 37.1126C61.6154 38.7506 61.4852 40.3787 61.0241 41.9748C60.7413 42.9558 60.3402 43.833 59.8341 44.617C60.1356 45.2133 60.4266 45.8364 60.7094 46.5078C61.0641 47.3518 61.352 48.1308 61.5891 48.8891C61.8494 49.7219 62.1109 50.6116 62.3192 51.5245C62.3436 51.4268 62.3687 51.3286 62.3931 51.2316L62.4782 50.9006L62.542 50.646C62.629 50.2962 62.7191 49.9352 62.8298 49.573C62.9906 49.0474 63.167 48.5419 63.3641 47.98C63.5243 47.5239 63.6813 47.1053 63.8428 46.6986C64.0943 46.066 64.4034 45.3934 64.8063 44.5926C64.6618 44.3711 64.5266 44.1409 64.4028 43.9037C63.4398 42.0455 63.0782 40.0633 63.2659 37.9811C63.3141 37.4442 63.3998 36.9149 63.6895 36.4394C64.2025 35.5953 65.4501 35.2062 66.2654 35.8137C66.4487 35.9501 66.6527 36.0552 66.846 36.1772C67.8189 36.7929 68.8469 37.0726 69.99 36.7235C70.3617 36.609 70.7427 36.527 71.1557 36.42C70.8028 36.1528 70.4993 35.9188 70.1915 35.6911C69.7141 35.3382 69.1992 35.0904 68.5823 35.1636C68.3001 35.1968 68.0192 35.2525 67.7351 35.2819C67.259 35.3326 66.7822 35.3801 66.3036 35.4077C66.2091 35.4133 66.1084 35.3219 66.0101 35.2763C66.0689 35.1755 66.1046 35.0485 66.1903 34.9791C66.6133 34.6349 67.0969 34.3684 67.6294 34.2846C68.3595 34.1688 69.1028 34.1188 69.843 34.0856C70.8785 34.0387 71.7113 33.6558 72.3063 32.7811C72.5735 32.3875 72.8826 32.024 73.1841 31.6329C72.8006 31.6329 72.402 31.6236 72.0035 31.6342C71.2739 31.6548 70.5751 31.8069 69.9775 32.2505C69.579 32.5458 69.2161 32.8893 68.82 33.1903C68.5235 33.4142 68.2112 33.622 67.8878 33.8053C67.6137 33.9617 67.3096 34.0649 67.025 34.2038C66.6001 34.4122 66.1841 34.6374 65.7567 34.8377C65.6616 34.8821 65.5321 34.8546 65.4182 34.8596C65.4476 34.7419 65.4401 34.588 65.5133 34.5117C65.7379 34.2808 65.9651 34.0218 66.2441 33.8766C67.1301 33.4205 67.3622 32.6322 67.4598 31.7099C66.7434 31.7837 66.1171 31.9683 65.7749 32.624C65.6109 32.9362 65.5146 33.2897 65.4282 33.6351C65.2749 34.2495 64.9903 34.7757 64.4778 35.1599C64.0455 35.4846 63.8346 35.4258 63.6125 34.9396C63.6025 34.9171 63.5938 34.8946 63.585 34.8721C63.2878 34.0806 63.1714 33.2572 63.2296 32.4201C63.2866 31.6111 63.6219 31.2175 64.2989 31.1093C64.5204 31.0742 64.7538 31.1011 64.9803 31.1161C65.5246 31.1493 66.0689 31.2338 66.612 31.2219C67.2558 31.2069 67.874 31.0335 68.3633 30.5737C68.77 30.1926 69.1598 29.7941 69.5527 29.408C69.0315 29.4331 68.4872 29.4518 67.9441 29.485C66.9737 29.5426 66.0646 29.786 65.2656 30.3672C65.1479 30.4535 65.0172 30.5311 64.8808 30.5774C64.7925 30.6075 64.6336 30.6125 64.5961 30.5624C64.5398 30.4886 64.5279 30.3384 64.5642 30.2496C64.6292 30.095 64.7319 29.9499 64.8413 29.8204C66.0814 28.36 67.6212 27.6192 69.5702 27.8532C70.2453 27.9346 70.8385 28.1454 71.2132 28.7673C71.3803 29.0426 71.4241 29.3017 71.2245 29.5857C71.1181 29.7359 71.0349 29.9111 70.9774 30.0875C70.8635 30.441 71.003 30.7263 71.3096 30.8177C71.6956 30.9334 72.1148 30.6463 72.0842 30.249C72.0673 30.0243 71.9565 29.8035 71.8652 29.5901C71.8076 29.4575 71.6706 29.353 71.6381 29.2185C71.5999 29.0639 71.5774 28.8437 71.6593 28.7392C71.7363 28.6403 71.9578 28.6247 72.1148 28.6253C72.2556 28.6266 72.4039 28.6835 72.5347 28.7454C73.4519 29.1803 74.1226 29.8441 74.4449 30.8283C74.488 30.9597 74.5337 31.0917 74.5944 31.215C74.946 31.9276 75.4597 32.4326 76.3062 32.4288C76.728 32.4275 77.1365 32.4551 77.5451 32.6196C77.5864 32.6009 77.6258 32.5846 77.6671 32.5664C77.5088 32.228 77.353 31.9114 77.2285 31.5885C77.114 31.2901 76.9451 31.0379 76.6623 30.9115C76.1974 30.7044 75.7075 30.5511 75.2376 30.3528C75.018 30.2608 74.7909 30.1476 74.6225 29.9868C74.4317 29.8053 74.5262 29.577 74.784 29.5119C74.8853 29.4856 74.9967 29.4625 75.0974 29.4781C75.4991 29.5413 75.9121 29.5776 76.295 29.7021C76.9357 29.9105 77.5532 30.192 78.1895 30.4173C78.7677 30.6218 79.3821 30.8415 79.979 30.6344C80.7091 30.3803 81.3974 30.0037 82.1751 29.6477C81.5181 29.333 80.9319 29.037 80.3331 28.7692C79.6004 28.4432 78.8515 28.4201 78.0976 28.7098C77.9455 28.7686 77.7879 28.8118 77.6339 28.8637C76.8299 29.1327 76.0084 29.3023 75.1569 29.2028C73.5195 29.0107 72.0379 28.3557 70.5888 27.6167C70.2209 27.429 70.2147 27.2063 70.5619 26.966C71.1238 26.5781 71.7263 26.4993 72.3326 26.8521C72.7336 27.0855 73.1109 27.3596 73.4944 27.6217C74.2484 28.1367 75.0793 28.4238 75.9865 28.2787C76.4745 28.2005 76.9357 27.9558 77.4293 27.78C77.0433 27.5266 76.7123 27.3208 76.3913 27.0968C75.9139 26.7645 75.4003 26.5737 74.8096 26.6232C74.4436 26.6544 74.077 26.6982 73.7109 26.6964C73.3324 26.6945 72.952 26.6532 72.576 26.6088C72.5065 26.6006 72.4039 26.5036 72.3964 26.4392C72.3901 26.3785 72.4784 26.2784 72.5478 26.2465C72.7768 26.1426 73.0121 26.0513 73.2529 25.9756C74.6582 25.5313 76.0378 25.5357 77.3924 26.1889C77.816 26.3929 78.269 26.5399 78.7157 26.6914C79.1431 26.8353 79.5817 26.9141 80.0384 26.844C81.072 26.6845 81.8479 26.0012 82.7782 25.5357C82.0418 25.2116 81.3229 25.0089 80.5771 24.8594C79.8401 24.7123 79.1925 24.8519 78.5668 25.2279C78.3297 25.3705 78.0825 25.4994 77.8285 25.6083C77.6671 25.6771 77.4813 25.7435 77.3142 25.7278C77.1759 25.7147 77.0101 25.6058 76.9332 25.4888C76.8931 25.4262 76.9807 25.2129 77.0702 25.1441C77.3468 24.9332 77.6427 24.7411 77.9474 24.5734C78.5749 24.2287 79.215 23.9077 79.8463 23.5686C80.5271 23.2032 81.1784 22.7734 81.9711 22.6726C82.1964 22.6439 82.426 22.6113 82.6419 22.5469C83.5378 22.2785 84.3205 21.8323 84.7491 20.9614C85.0638 20.3201 85.2409 19.6112 85.7446 19.0362C85.2384 19.12 84.7729 19.1939 84.308 19.2758C83.3332 19.446 82.5255 19.8784 81.9755 20.7355C81.7202 21.1335 81.4399 21.5157 81.1627 21.8999C80.7492 22.4762 80.2693 22.9873 79.6361 23.324C78.7151 23.8126 77.7929 24.2981 76.8562 24.7549C76.4639 24.9463 76.0403 25.0821 75.6211 25.206C75.2901 25.3017 75.1225 25.1034 75.2244 24.768C75.262 24.6448 75.3189 24.5221 75.3928 24.4164C75.6568 24.0303 76.0222 23.7826 76.4752 23.6718C77.1759 23.5016 77.8523 23.2727 78.4536 22.8616C78.8471 22.5925 79.1612 22.2515 79.3214 21.7979C79.5354 21.1866 79.7137 20.5616 80.1391 20.0248C79.6355 20.1724 79.1612 20.3095 78.6876 20.4515C78.0838 20.6323 77.6402 20.9983 77.3899 21.5865C77.2785 21.8492 77.1622 22.1095 77.0345 22.3648C76.9219 22.5894 76.8062 22.8165 76.6629 23.023C76.5972 23.1175 76.4627 23.1638 76.3588 23.232C76.3306 23.2095 76.3025 23.1869 76.2743 23.1632C76.31 22.9936 76.3256 22.8159 76.3845 22.6532C76.7098 21.7416 77.1459 20.8801 77.7384 20.1168C78.3541 19.3228 79.1255 18.6933 80.0278 18.2347C80.4576 18.017 80.8706 18.0251 81.2785 18.2935C81.3992 18.3724 81.5338 18.4431 81.6727 18.4825C82.0568 18.5907 82.5017 18.2091 82.471 17.8124C82.4416 17.4395 82.0606 17.2649 81.6739 17.4182C81.1308 17.6347 80.5815 17.8337 80.0271 18.0195C79.9114 18.0576 79.7644 18.0007 79.6323 17.9876C79.6774 17.8649 79.6937 17.7192 79.7712 17.6228C80.5233 16.6855 81.3836 15.9472 82.6562 15.7846C84.0071 15.6106 84.7091 14.913 85.0175 13.5941C85.1189 13.163 85.1908 12.7237 85.2753 12.297C84.8805 12.4022 84.4638 12.5048 84.0534 12.6249C83.3182 12.8401 82.7395 13.2718 82.3428 13.9282C82.1263 14.2829 81.9548 14.6652 81.734 15.0162C81.5313 15.3391 81.3042 15.6494 81.0589 15.9404C80.838 16.2013 80.5765 16.4265 80.335 16.6705C79.9671 17.0409 79.6067 17.4195 79.2288 17.7792C79.1543 17.8505 79.0136 17.853 78.9041 17.8881C78.9147 17.7805 78.9084 17.6666 78.9416 17.5659C78.9785 17.4514 79.0329 17.3337 79.1112 17.243C79.3865 16.9233 79.6511 16.5867 79.9652 16.3083C80.5177 15.8158 80.8868 15.2415 80.8587 14.4857C80.8355 13.8637 80.7598 13.2443 80.7098 12.6556C80.4883 12.8326 80.2561 13.051 79.994 13.2237C78.8265 13.9958 78.4217 15.0982 78.528 16.4522C78.5706 16.994 78.5831 17.5465 78.538 18.0877C78.488 18.6852 78.1207 19.1576 77.7728 19.6231C76.9907 20.6705 76.2074 21.716 75.9127 23.0305C75.887 23.145 75.8232 23.2733 75.7356 23.3434C75.6537 23.4091 75.5085 23.4447 75.4071 23.4216C75.3433 23.4072 75.2826 23.2639 75.2695 23.1726C75.2539 23.0549 75.2589 22.9185 75.3045 22.8115C75.5085 22.3441 75.7087 21.8711 75.9534 21.4238C76.1492 21.0659 76.3062 20.7136 76.3087 20.2976C76.3138 19.6312 76.0291 19.05 75.7995 18.4368C75.4522 18.8166 75.1087 19.1757 74.7852 19.5505C74.3404 20.0686 74.2415 20.6411 74.4586 21.3062C74.6801 21.9856 74.8553 22.6839 74.9955 23.384C75.18 24.3063 74.8534 24.9288 74.02 25.3605C73.833 25.4581 73.6377 25.5464 73.4381 25.6139C72.459 25.9449 71.4779 26.2734 70.4943 26.5906C70.2804 26.6601 70.0507 26.6889 69.8255 26.7158C69.7598 26.7233 69.6465 26.6763 69.6246 26.625C69.5965 26.5581 69.6084 26.4311 69.6559 26.3842C69.7867 26.2546 69.93 26.107 70.0964 26.0494C70.4706 25.9193 70.8591 25.8235 71.2477 25.7428C71.9221 25.6027 72.5372 25.3743 72.7862 24.6604C73.0083 24.0228 73.1847 23.3703 73.3681 22.7677C73.1591 22.8322 72.8988 22.926 72.631 22.9905C71.8771 23.1751 71.2671 23.5536 70.8541 24.2287C70.6282 24.5966 70.4042 24.9707 70.1415 25.3117C69.6697 25.9243 69.1792 26.5231 68.6736 27.1068C68.5791 27.2163 68.3764 27.2313 68.2244 27.2901C68.2125 27.1268 68.1593 26.9535 68.1969 26.8008C68.4865 25.6121 69.1135 24.6322 70.0789 23.8746C70.5281 23.5223 71.0011 23.1951 71.421 22.8103C71.6969 22.5563 72.011 22.2522 72.108 21.9143C72.3451 21.0847 72.4652 20.2219 72.6367 19.3522C72.2938 19.5386 71.9885 19.7076 71.6787 19.8709C70.4537 20.5159 69.8274 21.5264 69.8293 22.9148C69.8305 23.2626 69.7229 23.5642 69.5339 23.8545C68.9208 24.7987 68.3295 25.7578 67.7088 26.6964C67.4498 27.0874 67.1795 27.4916 66.8348 27.8007C66.3893 28.1992 65.8681 28.5165 65.3663 28.8487C65.2874 28.9006 65.0966 28.8969 65.0403 28.8387C64.9815 28.7774 64.9777 28.5953 65.0272 28.5102C65.1335 28.3225 65.2637 28.1329 65.4282 27.9984C65.7041 27.7719 66.0151 27.5848 66.3129 27.3858C66.679 27.1431 66.9693 26.8378 67.0487 26.3917C67.1438 25.858 67.2139 25.3199 67.2996 24.7449C66.9073 24.9445 66.5563 25.1134 66.2141 25.3005C65.7067 25.5777 65.3319 25.99 65.1605 26.5387C65.0134 27.0098 64.9027 27.4991 64.8388 27.9878C64.76 28.6034 64.6568 29.1984 64.2451 29.6921C64.0574 29.9167 63.8465 30.1288 63.5206 30.0487C63.2033 29.9693 63.122 29.6871 63.0657 29.4106C62.8617 28.3976 62.9136 27.3884 63.0469 26.3685C63.1964 25.2242 64.2063 24.5121 65.0822 24.4339C65.5039 24.3964 65.9313 24.4164 66.3511 24.3626C66.9267 24.2894 67.5005 24.1348 67.834 23.6162C68.1337 23.15 68.4465 22.7164 68.942 22.4067C68.4309 22.3392 67.9228 22.2672 67.4198 22.2929C66.7885 22.3241 66.3142 22.7308 65.828 23.0937C65.3456 23.4535 64.8551 23.8045 64.3502 24.1305C64.2201 24.2149 64.0236 24.1943 63.8572 24.2218C63.8716 24.0585 63.8459 23.8796 63.9053 23.7357C64.257 22.8885 64.7638 22.1371 65.4345 21.5133C66.2034 20.7981 67.3635 20.6967 68.2538 21.2236C68.3164 21.2611 68.3821 21.2968 68.4496 21.3218C68.6868 21.41 68.9032 21.3349 69.0459 21.1222C69.2029 20.8876 69.1879 20.6029 69.0077 20.4265C68.7844 20.2062 68.4334 20.1605 68.2156 20.3395C67.9898 20.5247 67.7357 20.6117 67.4467 20.5954C67.1833 20.581 67.0688 20.4021 67.212 20.1812C67.3297 20.0023 67.4823 19.8227 67.6613 19.7088C68.4865 19.1851 69.3193 18.6714 70.1659 18.1803C70.6877 17.8787 71.2614 17.7554 71.8633 17.9037C72.1711 17.9794 72.4746 18.0764 72.7749 18.1778C73.4325 18.3974 74.0907 18.4431 74.7289 18.1359C75.4322 17.7967 76.1223 17.4295 76.7549 17.1066C76.5008 17.0034 76.1536 16.9158 75.8651 16.735C74.8828 16.1193 73.9443 16.1224 72.997 16.8069C72.6892 17.029 72.3407 17.1986 71.9997 17.37C71.8877 17.4276 71.7432 17.4163 71.6124 17.4363C71.6005 17.4063 71.5893 17.3769 71.5768 17.3475C71.6368 17.2537 71.6806 17.1435 71.7588 17.0697C72.041 16.8019 72.3226 16.531 72.6279 16.2895C73.4782 15.6156 74.488 15.3003 75.5191 15.0344C75.9753 14.9174 76.3895 14.8805 76.7574 15.2765C76.9476 15.4811 77.2623 15.4336 77.4663 15.2396C77.6677 15.0475 77.7071 14.7578 77.5626 14.5245C77.3517 14.1816 77.0802 14.1109 76.7098 14.2711C76.3075 14.445 75.8989 14.6058 75.4866 14.7535C75.404 14.7822 75.2276 14.7484 75.2051 14.6971C75.1688 14.612 75.1894 14.46 75.2476 14.3868C75.4253 14.1653 75.6268 13.9613 75.8289 13.7611C76.28 13.3131 76.7574 12.8902 77.1853 12.4203C77.7997 11.7471 78.4573 11.1596 79.3702 10.9212C79.6004 10.8605 79.8188 10.726 80.0234 10.5958C80.5083 10.2874 80.8061 9.84752 80.9025 9.27252C80.95 8.99284 81.0082 8.7113 81.0933 8.44038C81.1972 8.10814 81.3348 7.78654 81.4474 7.48872C81.0207 7.61886 80.5871 7.78905 80.136 7.88478C78.8991 8.14443 78.2064 8.89336 78.0181 10.1316C78.0143 10.1547 78.01 10.1798 78.0068 10.2042C77.8867 11.1283 77.4243 11.8653 76.7736 12.5091C76.1404 13.1348 75.521 13.7736 74.8947 14.4062C74.8372 14.4644 74.7777 14.5257 74.7076 14.5626C74.6263 14.6033 74.5324 14.6196 74.4442 14.6465C74.4348 14.5482 74.3954 14.4406 74.4223 14.3536C74.6025 13.7805 74.9723 13.3444 75.4365 12.9759C75.6787 12.7832 75.9277 12.5949 76.1429 12.374C76.6034 11.9022 76.8612 11.3341 76.7749 10.6665C76.6798 9.92824 76.5428 9.19556 76.4226 8.45727C75.964 8.92903 75.5066 9.39203 75.0561 9.86254C74.3203 10.6284 74.0663 11.5387 74.2184 12.5867C74.2753 12.979 74.2947 13.3863 74.2547 13.7799C74.184 14.4913 73.7328 14.9956 73.2129 15.4367C71.8664 16.5798 70.4067 17.5671 68.9233 18.52C68.8131 18.5901 68.6968 18.6514 68.5766 18.7015C68.2776 18.8254 68.1706 18.7559 68.1612 18.4299C68.1449 17.8656 68.2801 17.3312 68.5047 16.8169C68.7262 16.3095 69.0684 15.9278 69.6028 15.732C70.0069 15.5818 70.403 15.4079 70.8065 15.2552C71.5736 14.9643 72.0923 14.4613 72.2925 13.6391C72.4583 12.9546 72.6698 12.2808 72.8531 11.6282C72.4239 11.8009 71.9609 11.9936 71.4942 12.1763C70.7402 12.4729 70.2491 13.0066 69.98 13.7705C69.8199 14.2223 69.6228 14.6615 69.42 15.0963C69.3468 15.2527 69.2098 15.3791 69.1022 15.5205C69.0728 15.5061 69.0446 15.4924 69.0159 15.4792C69.0159 15.3704 68.9958 15.2571 69.019 15.1533C69.1354 14.654 69.243 14.1522 69.3913 13.6635C69.7229 12.5673 70.3129 11.6307 71.2089 10.9093C71.725 10.4926 72.3013 10.2617 72.9833 10.4801C73.0878 10.5132 73.2104 10.5045 73.323 10.4951C73.5702 10.4738 73.796 10.2993 73.8217 10.0634C73.8361 9.92823 73.7923 9.73177 73.6997 9.65606C73.6083 9.58161 73.4125 9.59162 73.278 9.62666C73.1616 9.65732 73.059 9.76493 72.9651 9.85377C72.6786 10.1266 72.3263 10.2017 71.9509 10.1979C71.6443 10.1948 71.5999 10.1291 71.72 9.84252C71.9941 9.1793 72.3814 8.58303 72.8825 8.07435C73.0934 7.86037 73.3718 7.7027 73.6409 7.55817C74.0907 7.31416 74.5712 7.1252 75.0117 6.86742C75.3978 6.64155 75.6192 6.27929 75.6205 5.81191C75.623 5.14681 75.6211 4.48109 75.6211 3.7891C75.2001 4.00495 74.8397 4.18953 74.4787 4.37473C74.4649 4.38161 74.4505 4.39037 74.4367 4.39787C73.5896 4.81708 73.2254 5.55913 73.1172 6.44384C73.0289 7.16086 72.7862 7.79217 72.3401 8.36279C71.9052 8.92152 71.4848 9.49401 71.2395 10.1741C71.1826 10.3324 71.0987 10.5545 70.8848 10.4988C70.8297 10.4851 70.8078 10.1741 70.8422 10.0158C70.9429 9.54219 71.1907 9.14175 71.5398 8.80326C72.178 8.18697 72.3989 7.47057 72.1142 6.60026C71.9403 6.06968 71.8308 5.51909 71.6913 4.97099C71.3578 5.49218 71.0093 6.01963 70.6777 6.55834C70.2366 7.27474 70.1114 8.03931 70.3498 8.85895C70.6501 9.88944 70.4618 10.8492 69.9375 11.7727C69.706 12.1807 69.5345 12.6249 69.3575 13.0616C69.1904 13.4758 69.0559 13.9019 68.8957 14.3199C68.872 14.3824 68.7887 14.4225 68.7331 14.4731C68.6918 14.4081 68.6148 14.3424 68.6148 14.2773C68.6123 14.0345 68.6167 13.7893 68.6561 13.5509C68.6886 13.3601 68.7869 13.183 68.8357 12.9941C68.9026 12.7363 68.7418 12.5023 68.4922 12.4729C68.2475 12.4435 68.0085 12.633 68.0123 12.8795C68.0141 13.0209 68.0429 13.1774 68.1093 13.2994C68.5053 14.0183 68.6186 14.8079 68.4603 15.5781C68.2325 16.683 67.904 17.7711 67.5605 18.8479C67.3741 19.4329 67.0131 19.9434 66.5044 20.3182C66.3298 20.4471 66.1084 20.5991 65.9025 20.4527C65.7035 20.3095 65.8018 20.0629 65.8456 19.859C65.9432 19.4041 66.2429 19.0619 66.5063 18.699C66.9962 18.0264 67.264 17.3031 67.085 16.4515C66.9749 15.9235 66.9092 15.3866 66.8223 14.8492C66.4906 15.1977 66.1453 15.523 65.8424 15.8847C65.1874 16.6655 64.8889 17.5246 65.3269 18.5307C65.5246 18.9855 65.5227 19.4685 65.4295 19.9509C65.1986 21.146 64.5091 22.0939 63.7727 23.0155C63.7477 23.0468 63.7126 23.0712 63.6807 23.0956C63.3992 23.3165 63.1689 23.2651 63.0569 22.9285C62.9756 22.6833 62.9186 22.423 62.8999 22.1658C62.8229 21.1454 62.7572 20.1192 63.234 19.1638C64.0705 17.487 64.9146 15.814 65.773 14.149C66.0039 13.6998 66.3711 13.3601 66.8104 13.0979C67.1739 12.8814 67.5274 12.6443 67.8759 12.404C68.4083 12.038 68.755 11.5594 68.8676 10.898C68.9883 10.1898 69.1679 9.49088 69.325 8.77636C69.0065 8.89774 68.6573 9.02476 68.3145 9.16428C67.6287 9.44459 67.1745 9.93824 66.978 10.6565C66.8423 11.1508 66.7328 11.6526 66.5864 12.1438C66.5082 12.4053 66.3893 12.6581 66.2585 12.8996C66.2229 12.9653 66.0802 12.9746 65.9863 13.0103C65.9588 12.9321 65.9131 12.8545 65.9075 12.7751C65.8975 12.6205 65.9031 12.4641 65.9169 12.3096C66.0389 10.8849 66.4906 9.55533 67.1163 8.28145C67.2583 7.99239 67.4529 7.72085 67.6638 7.47621C68.0673 7.01071 68.3526 6.48951 68.5272 5.902C68.6461 5.50407 68.6855 5.10489 68.5691 4.69758C68.3846 4.05188 68.205 3.4043 68.0242 2.76236C67.742 3.06644 67.4604 3.39367 67.1551 3.6965C66.2485 4.59747 65.9795 5.668 66.2385 6.90746C66.3811 7.5932 66.4787 8.28645 66.3161 8.99347C66.012 10.318 65.7386 11.6507 65.4332 12.9753C65.295 13.5765 65.1166 14.1691 64.9415 14.761C64.9014 14.8974 64.8026 15.07 64.6318 14.9981C64.5367 14.9587 64.4566 14.7904 64.4409 14.6702C64.3809 14.2047 64.486 13.7655 64.7137 13.3519C65.0215 12.7932 65.2124 12.1863 65.0472 11.565C64.8601 10.8649 64.5704 10.1929 64.3227 9.50089C64.0223 10.0471 63.7045 10.5802 63.4292 11.1333C62.9875 12.0261 63.0432 12.9258 63.5988 13.7361C64.088 14.4481 64.2395 15.2027 64.1412 16.0323C64.083 16.5235 63.9591 16.9965 63.6438 17.3932C63.4286 17.6635 63.1908 17.6547 63.0225 17.3525C62.9055 17.1435 62.8117 16.9051 62.776 16.6705C62.6959 16.1468 62.6459 15.6169 62.6083 15.0894C62.5207 13.86 62.3875 12.6261 62.5339 11.3967C62.669 10.253 63.1526 9.25125 64.0317 8.48542C64.5617 8.02367 65.0416 7.55067 65.116 6.80861C65.183 6.13101 65.2362 5.45089 65.2931 4.80394C65.0729 4.91281 64.8107 5.03982 64.5492 5.16933C64.4835 5.20187 64.4184 5.23629 64.354 5.27133C63.4198 5.77687 63.1658 6.63342 63.1201 7.6126C63.0938 8.18134 63.0413 8.75008 62.9656 9.31507C62.9462 9.4596 62.7941 9.58724 62.7034 9.72176C62.6427 9.5791 62.5382 9.44145 62.5282 9.29567C62.4782 8.57239 62.4481 7.84661 62.4212 7.12082C62.3831 6.09534 62.3799 5.07548 63.0206 4.1864C63.0957 4.08253 63.1408 3.95489 63.1889 3.83414C63.5618 2.88687 63.5018 1.96462 63.0056 1.07929C62.7935 0.700752 62.5445 0.342245 62.328 0C62.1284 0.316592 61.9132 0.648824 61.7055 0.986689C61.2756 1.68307 61.1048 2.4464 61.3088 3.23663C61.4402 3.74968 61.6873 4.23708 61.922 4.71698C62.1128 5.10865 62.2335 5.50596 62.2285 5.93767C62.216 6.94814 62.1998 7.95986 62.1754 8.97158C62.171 9.15678 62.129 9.34322 62.0871 9.52467C62.0708 9.59599 62.007 9.65731 61.9651 9.72176C61.9013 9.66545 61.8137 9.62102 61.7793 9.55032C61.7161 9.42018 61.6573 9.27753 61.6448 9.1355C61.5859 8.48605 61.5459 7.83472 61.4959 7.18401C61.4308 6.34373 61.0598 5.6899 60.3102 5.27758C59.9867 5.10114 59.6507 4.94597 59.3598 4.80019C59.4142 5.38019 59.4874 5.97771 59.5219 6.57711C59.5613 7.26285 59.8334 7.81533 60.3615 8.25017C60.5623 8.41598 60.7701 8.58116 60.939 8.77887C61.7361 9.7105 62.1879 10.7892 62.1691 12.0217C62.1516 13.1974 62.0909 14.3724 62.0177 15.5456C61.987 16.0386 61.8932 16.5297 61.7924 17.0159C61.7399 17.268 61.6291 17.5659 61.3238 17.5746C61.0372 17.5834 60.9083 17.3031 60.8145 17.071C60.3684 15.9729 60.2964 14.8942 60.9978 13.855C61.5403 13.051 61.6967 12.1794 61.2888 11.2784C61.0128 10.6678 60.6612 10.0915 60.3427 9.50027C60.1632 9.98955 60.0174 10.4719 59.8128 10.9274C59.4274 11.7821 59.5256 12.588 59.9661 13.387C60.1932 13.7974 60.2845 14.2448 60.2151 14.7096C60.1988 14.8191 60.0875 14.9136 60.0199 15.015C59.9229 14.9412 59.7815 14.8886 59.7377 14.7916C59.6151 14.5176 59.5049 14.2335 59.4386 13.942C59.0864 12.394 58.7491 10.8423 58.405 9.29192C58.2949 8.79576 58.2085 8.29835 58.2818 7.78905C58.3481 7.32918 58.4382 6.87181 58.487 6.41068C58.5545 5.76811 58.5414 5.11365 58.1504 4.57181C57.6867 3.92987 57.1562 3.33423 56.6512 2.71418C56.5023 3.23537 56.3547 3.70087 56.2383 4.17326C56.1457 4.55117 56.0137 4.94222 56.0349 5.3195C56.0787 6.10472 56.4366 6.78046 56.9228 7.39925C57.2125 7.76777 57.4696 8.16883 57.683 8.58553C57.9051 9.0185 58.0734 9.48212 58.2367 9.94262C58.5571 10.8473 58.7279 11.7821 58.751 12.7425C58.7529 12.8339 58.691 12.9258 58.6584 13.0172C58.5564 12.964 58.4069 12.9359 58.3619 12.8514C58.2392 12.6249 58.141 12.3803 58.0697 12.1331C57.9295 11.6488 57.8356 11.1495 57.683 10.6697C57.3601 9.66107 56.3497 8.88898 55.3392 8.81015C55.4618 9.36512 55.6333 9.93073 55.7052 10.5076C55.8241 11.4668 56.2846 12.1657 57.1149 12.6405C57.3626 12.7826 57.5923 12.9553 57.84 13.0967C58.3087 13.3632 58.6759 13.7336 58.9206 14.2047C59.7064 15.7151 60.466 17.2399 61.2506 18.7509C61.8963 19.9941 61.9044 21.3049 61.6886 22.6401C61.6529 22.8616 61.6354 23.1394 61.3476 23.2082C61.0585 23.2777 60.8908 23.0599 60.7544 22.8654C60.3903 22.3467 60.0155 21.8305 59.7096 21.2774C59.1746 20.3126 58.97 19.3002 59.4311 18.2291C59.6169 17.7986 59.565 17.3531 59.4199 16.9133C59.1327 16.0398 58.4244 15.498 57.8344 14.8548C57.7462 15.4067 57.6805 15.9397 57.5729 16.4653C57.4183 17.2199 57.6067 17.8875 58.0221 18.5088C58.2079 18.7866 58.4388 19.0406 58.5865 19.3372C58.721 19.6062 58.8011 19.9134 58.8486 20.2125C58.8874 20.4546 58.7285 20.5691 58.4945 20.4784C58.2949 20.4008 58.0947 20.2844 57.9408 20.1368C57.4978 19.7126 57.1806 19.197 57.0029 18.6095C56.742 17.7442 56.4729 16.8795 56.2652 16.0017C56.0443 15.0663 56.0994 14.1397 56.5661 13.2693C56.6143 13.178 56.6344 13.0697 56.6494 12.9671C56.6757 12.7788 56.6124 12.6011 56.4341 12.5436C56.2959 12.4985 56.1082 12.5004 55.978 12.5592C55.7922 12.6437 55.7822 12.8501 55.8266 13.0328C55.8623 13.1824 55.9511 13.3219 55.9736 13.4708C56.0149 13.7417 56.0343 14.0164 56.0412 14.2911C56.0431 14.3511 55.9592 14.4137 55.9142 14.475C55.8641 14.4281 55.7947 14.3899 55.7672 14.3317C55.6902 14.1703 55.6308 14.0014 55.5657 13.8337C55.3173 13.198 55.1384 12.5223 54.8055 11.9335C54.2449 10.94 53.9902 9.93887 54.3175 8.82141C54.5452 8.04182 54.4257 7.30101 54.0071 6.61214C53.7231 6.14476 53.4196 5.69053 53.1256 5.2294C53.068 5.13931 53.0142 5.04796 52.9485 4.93972C52.8953 5.21001 52.8571 5.44339 52.8015 5.67176C52.7289 5.97271 52.6626 6.27741 52.5581 6.56772C52.2365 7.46119 52.4811 8.19699 53.1437 8.8308C53.4885 9.16178 53.7218 9.56346 53.8201 10.0277C53.8526 10.1829 53.7875 10.3581 53.7669 10.5245C53.6505 10.4119 53.4791 10.3218 53.4278 10.1848C53.1762 9.51654 52.7714 8.94529 52.3391 8.39344C51.883 7.81094 51.6283 7.16713 51.5382 6.43258C51.4325 5.56915 51.079 4.83648 50.2525 4.4179C49.862 4.22082 49.4766 4.01559 49.1043 3.82288C49.0756 4.34657 49.0568 4.87652 49.0155 5.40459C48.9523 6.20108 49.2889 6.75793 49.9984 7.09892C50.27 7.22906 50.5496 7.34106 50.8218 7.46995C51.0558 7.58132 51.3167 7.66828 51.5094 7.83096C52.1695 8.38969 52.6244 9.10484 52.9579 9.89507C53.0517 10.1191 52.9967 10.1923 52.7483 10.1979C52.356 10.2073 51.985 10.1403 51.6865 9.85002C51.6114 9.77682 51.5245 9.713 51.4375 9.65356C51.2748 9.54219 51.1028 9.51028 50.9426 9.64981C50.7762 9.79372 50.7786 9.97704 50.8637 10.1635C50.9945 10.45 51.318 10.5864 51.704 10.4713C52.2321 10.3155 52.7139 10.4213 53.15 10.711C53.4459 10.9068 53.7243 11.1439 53.9696 11.4011C54.9281 12.4084 55.3561 13.666 55.6139 14.9968C55.6445 15.1551 55.6414 15.3216 55.6589 15.5399C55.3436 15.376 55.2403 15.1395 55.1409 14.9124C54.9325 14.435 54.7423 13.9495 54.5421 13.4677C54.3506 13.0084 54.0566 12.6255 53.6048 12.409C53.0029 12.1206 52.3835 11.8666 51.8029 11.6119C51.9643 12.1982 52.1533 12.7788 52.2803 13.3738C52.4999 14.3974 53.0974 15.0425 54.091 15.3553C54.4701 15.4742 54.833 15.6482 55.2015 15.7989C55.5475 15.9416 55.8028 16.1887 55.988 16.5072C56.319 17.0753 56.4879 17.6916 56.4967 18.348C56.5023 18.7822 56.3747 18.8566 55.9793 18.657C55.841 18.5882 55.7084 18.5075 55.5782 18.4237C55.2629 18.2197 54.9419 18.0239 54.6397 17.8024C53.5548 17.0065 52.4649 16.2156 51.4012 15.3916C50.8763 14.9856 50.4614 14.4613 50.3995 13.768C50.3626 13.3513 50.4064 12.9221 50.4483 12.5016C50.5284 11.7058 50.4671 10.9337 49.9377 10.2986C49.404 9.65606 48.8159 9.05917 48.2453 8.43475C48.1383 9.05229 48.0526 9.63979 47.9324 10.2204C47.7197 11.2396 48.0463 12.0486 48.8428 12.6887C48.9704 12.7913 49.1012 12.8883 49.2307 12.9884C49.6462 13.3081 49.9778 13.6973 50.173 14.1853C50.2281 14.3217 50.2074 14.4888 50.2218 14.6421C50.0829 14.5783 49.9127 14.547 49.8107 14.4456C49.0749 13.7148 48.351 12.9728 47.6277 12.2295C47.126 11.7127 46.8144 11.1001 46.6886 10.3844C46.6235 10.0171 46.5109 9.65606 46.3914 9.30255C46.2375 8.84706 45.9622 8.45539 45.5123 8.27645C44.749 7.97299 43.9632 7.7246 43.2417 7.47245C43.3975 7.98613 43.5671 8.50231 43.706 9.026C43.8017 9.38765 43.8424 9.76181 44.077 10.0759C44.3917 10.4982 44.8091 10.791 45.3021 10.9274C46.2125 11.179 46.8744 11.7546 47.4807 12.4353C47.8004 12.7932 48.1508 13.1254 48.4937 13.462C48.7671 13.7317 49.0631 13.9782 49.3196 14.2617C49.4147 14.3674 49.4259 14.5488 49.476 14.6959C49.3233 14.7059 49.1538 14.761 49.0205 14.714C48.6294 14.5776 48.2534 14.3999 47.8717 14.2379C47.4719 14.0683 46.9839 14.4049 47.0102 14.8398C47.0233 15.0657 47.131 15.2459 47.3437 15.3447C47.5677 15.4486 47.7848 15.4204 47.9525 15.2427C48.2403 14.9374 48.5781 14.8949 48.961 14.9987C49.1732 15.0569 49.389 15.0982 49.6005 15.1558C50.8274 15.4861 51.9324 16.0386 52.8133 16.9771C52.9178 17.0885 52.961 17.258 53.033 17.4007C52.8722 17.3775 52.6913 17.3951 52.5549 17.325C52.187 17.1335 51.8298 16.9177 51.4825 16.6905C50.5834 16.1043 49.7056 16.1731 48.8197 16.7237C48.6101 16.8551 48.3623 16.9277 48.1289 17.019C48.0288 17.0584 47.9206 17.0747 47.8542 17.0916C48.2978 17.3131 48.754 17.5383 49.2082 17.7673C49.404 17.8662 49.5936 17.9794 49.7901 18.0777C50.4276 18.3943 51.0852 18.4356 51.7603 18.2134C51.9618 18.1471 52.1626 18.0814 52.3635 18.0145C53.0411 17.7911 53.7231 17.7548 54.355 18.1171C55.2879 18.6514 56.1995 19.2233 57.1092 19.797C57.2588 19.8915 57.3789 20.0611 57.4652 20.2206C57.5729 20.4196 57.4678 20.5741 57.2413 20.5954C56.9334 20.6235 56.6675 20.5266 56.4279 20.3289C56.2295 20.1649 55.9242 20.2018 55.6921 20.3939C55.5019 20.5522 55.4525 20.7994 55.5644 21.0371C55.7146 21.3556 56.0037 21.4394 56.3403 21.2649C56.5837 21.1379 56.8214 20.9389 57.078 20.9089C57.9996 20.8019 58.8386 21.0284 59.4643 21.756C59.8128 22.1615 60.1231 22.6038 60.4109 23.0555C60.5886 23.3321 60.7 23.6543 60.8214 23.9634C60.8514 24.0391 60.8364 24.1824 60.7845 24.2268C60.7325 24.2719 60.598 24.2575 60.5167 24.2249C60.3284 24.1505 60.1356 24.071 59.9717 23.9547C59.5337 23.6418 59.0914 23.3309 58.6847 22.9786C57.8025 22.2153 56.8133 22.1189 55.7984 22.4186C56.0706 22.712 56.4229 22.9867 56.6343 23.3452C56.9534 23.8852 57.3996 24.1924 57.9839 24.2969C58.4307 24.377 58.8899 24.3982 59.3448 24.4139C60.3121 24.4477 61.2575 25.0615 61.4852 25.8892C61.8156 27.0887 61.825 28.305 61.5672 29.5232C61.5159 29.7678 61.3995 29.9793 61.1486 30.0512C60.8814 30.1282 60.675 29.978 60.501 29.7928C60.2051 29.4756 60.0055 29.1002 59.9292 28.6741C59.8453 28.2105 59.8172 27.735 59.7246 27.2726C59.5757 26.5274 59.2966 25.8386 58.619 25.4118C58.2311 25.1678 57.8106 24.977 57.3683 24.7418C57.4408 25.2742 57.5028 25.7585 57.5741 26.2409C57.6386 26.6826 57.8532 27.038 58.2211 27.2939C58.4826 27.4747 58.7692 27.6242 59.0107 27.8282C59.2428 28.024 59.4449 28.2606 59.6295 28.5039C59.6852 28.5778 59.6814 28.7667 59.6245 28.8331C59.5738 28.8925 59.3867 28.8994 59.3004 28.8537C58.4338 28.3926 57.6492 27.8226 57.1067 26.9854C56.4729 26.0075 55.8773 25.0033 55.2347 24.0297C54.9569 23.6099 54.8324 23.1826 54.8174 22.6814C54.7899 21.7423 54.4426 20.9182 53.6743 20.3451C53.17 19.9697 52.6063 19.675 52.0375 19.3234C52.1652 20.0611 52.294 20.7474 52.4004 21.4376C52.4917 22.0301 52.8033 22.478 53.2582 22.8416C53.5516 23.0768 53.8426 23.3152 54.1473 23.5336C55.0407 24.1724 55.7741 24.9482 56.1908 25.9793C56.3272 26.316 56.4066 26.6763 56.4923 27.0305C56.5117 27.1099 56.4748 27.2538 56.4179 27.2857C56.3565 27.3195 56.2202 27.2814 56.1545 27.2276C55.9411 27.0536 55.7109 26.8834 55.5488 26.6663C54.9882 25.9149 54.4532 25.1453 53.9108 24.3813C53.6317 23.9878 53.379 23.5523 52.9228 23.3509C52.3754 23.1093 51.7998 22.9298 51.2842 22.7415C51.4538 23.3021 51.6352 23.8583 51.7879 24.4208C51.9462 25.0033 52.2884 25.4012 52.8603 25.5927C53.053 25.6571 53.2513 25.7065 53.4509 25.7403C53.9089 25.8217 54.3719 25.8892 54.7673 26.1583C54.92 26.2621 55.1271 26.3873 55.0483 26.5944C54.9613 26.8234 54.721 26.7364 54.5521 26.6857C53.9596 26.5105 53.3702 26.3228 52.7839 26.1251C52.0826 25.8892 51.3674 25.6803 50.6923 25.3818C49.7988 24.9858 49.4754 24.3313 49.6681 23.3715C49.8113 22.6545 50.0072 21.9469 50.2193 21.2467C50.4032 20.6398 50.325 20.0999 49.9221 19.6181C49.5874 19.2189 49.2276 18.841 48.8503 18.4218C48.7127 18.8172 48.5688 19.1864 48.4549 19.5643C48.2478 20.2531 48.3347 20.8951 48.7533 21.4976C48.9429 21.7698 49.0937 22.0757 49.2157 22.3836C49.3121 22.6295 49.3546 22.8998 49.3853 23.1644C49.3953 23.2489 49.3071 23.4053 49.2357 23.4241C49.1394 23.4497 48.9786 23.4072 48.9141 23.3333C48.8115 23.2157 48.7377 23.0562 48.7008 22.9023C48.4605 21.9049 47.9437 21.0528 47.3387 20.2444C47.1428 19.9828 46.9583 19.7126 46.758 19.4548C46.27 18.8253 46.011 18.1227 46.0661 17.3187C46.088 17.0009 46.113 16.6824 46.1311 16.3658C46.1968 15.2327 45.9453 14.2248 45.0012 13.4871C44.6383 13.2036 44.276 12.9196 43.9344 12.6518C43.9081 13.0579 43.9206 13.4946 43.8449 13.915C43.6553 14.9687 44.017 15.7614 44.8316 16.4315C45.1857 16.7237 45.4297 17.1535 45.7013 17.5377C45.762 17.6222 45.7288 17.7742 45.7388 17.8943C45.63 17.8537 45.4942 17.8412 45.416 17.768C45.1006 17.4726 44.8097 17.151 44.4962 16.8538C43.6491 16.0524 42.9101 15.1789 42.4165 14.1027C42.1537 13.5309 41.7045 13.0704 41.1094 12.8307C40.5426 12.6024 39.9463 12.4497 39.3638 12.2645C39.4132 12.486 39.4545 12.675 39.4977 12.8639C39.589 13.2681 39.6641 13.6785 39.7793 14.0765C39.9613 14.7046 40.3586 15.1839 40.9524 15.4455C41.3647 15.6269 41.8115 15.7545 42.2557 15.8321C43.4939 16.0499 44.3023 16.8413 45.003 17.7961C45.008 17.803 45.0118 17.8099 45.0149 17.8174C45.0806 17.9575 45.0418 18.0508 44.8829 18.0426C44.7215 18.0345 44.5538 18.0195 44.403 17.965C43.9144 17.7899 43.4313 17.5978 42.9477 17.4076C42.6824 17.3024 42.4728 17.3406 42.3057 17.5365C42.1462 17.7229 42.1456 17.9582 42.3032 18.1915C42.5153 18.5063 42.8369 18.5876 43.1779 18.4118C43.2649 18.3667 43.3494 18.3179 43.432 18.2654C43.793 18.0357 44.1684 18.0195 44.55 18.2003C44.7478 18.2942 44.9423 18.3993 45.1294 18.515C46.7343 19.508 47.6772 21.0021 48.3016 22.7327C48.3516 22.871 48.351 23.0268 48.3742 23.1751C48.3485 23.1932 48.3235 23.2126 48.2978 23.2307C48.1971 23.1663 48.0738 23.1212 48.0013 23.0343C47.8886 22.8973 47.8004 22.7364 47.7216 22.5775C47.532 22.1896 47.3781 21.7823 47.161 21.4106C47.0177 21.1635 46.8325 20.8751 46.5923 20.7631C45.9403 20.4615 45.2483 20.245 44.5719 19.9941C44.5619 20.0166 44.5525 20.0398 44.5425 20.0629C44.9167 20.5322 45.1025 21.089 45.2796 21.6478C45.4204 22.0914 45.6731 22.4486 46.0366 22.7346C46.6329 23.2038 47.3237 23.461 48.0501 23.6356C48.4568 23.7325 48.8334 23.8927 49.1 24.2193C49.2495 24.4026 49.3715 24.6279 49.4372 24.8544C49.521 25.1309 49.3534 25.2767 49.0712 25.2204Z" fill="#1D1B1B"/>
<path d="M83.6974 43.796C83.2888 43.7954 82.8784 43.8148 82.4717 43.7873C81.5744 43.7266 80.6778 43.6759 79.7794 43.6959C79.337 43.7059 78.8928 43.7241 78.4536 43.771C77.9549 43.8242 77.4537 43.8511 76.962 43.9625C76.5759 44.0501 76.1817 44.1039 75.7994 44.204C75.1243 44.381 74.4611 44.595 73.8079 44.8465C72.9044 45.1957 72.031 45.6049 71.1957 46.0916C69.7967 46.9075 68.5479 47.9092 67.4542 49.1099C66.4093 50.2568 65.554 51.5294 64.8501 52.9065C64.4772 53.6335 64.1487 54.3793 63.8678 55.1458C63.8459 55.2084 63.8334 55.2741 63.8165 55.3385C63.8378 55.3485 63.8584 55.3579 63.8797 55.3673C63.946 55.2885 64.0173 55.2134 64.0768 55.1295C64.5072 54.5301 65.0021 53.9908 65.5396 53.4859C66.1115 52.9484 66.7334 52.4792 67.3954 52.06C68.255 51.5156 69.1685 51.0777 70.1208 50.7267C70.6651 50.5252 71.2289 50.3775 71.7864 50.2086C72.3545 50.0365 72.9388 49.9245 73.522 49.8163C74.0369 49.7212 74.5562 49.6492 75.0755 49.5792C75.4228 49.5335 75.7719 49.5097 76.1204 49.4759C76.3988 49.4496 76.6773 49.4102 76.9563 49.4015C77.8767 49.3708 78.7952 49.3389 79.7162 49.3333C80.4858 49.327 81.2566 49.3564 82.0262 49.3708C82.2477 49.3752 82.4767 49.3489 82.69 49.394C83.1155 49.4841 83.5259 49.3796 83.9426 49.3545C83.977 49.3527 84.0083 49.3339 84.0415 49.3226C84.4776 49.1681 84.848 48.9128 85.1833 48.5981C85.9047 47.9186 86.4647 47.1184 86.9621 46.2681C87.4445 45.4422 87.8443 44.575 88.2448 43.7084C88.3461 43.4882 88.4519 43.2711 88.5682 43.0258C88.5013 43.0177 88.4544 42.9983 88.4218 43.0108C88.2028 43.0909 87.9914 43.191 87.7705 43.2598C87.3482 43.3912 86.9177 43.4901 86.4829 43.5745C85.7127 43.7235 84.9349 43.781 84.1528 43.7948C84.0014 43.796 83.8488 43.796 83.6974 43.796Z" fill="#CFB53B"/>
<path d="M36.3549 43.626C36.6934 44.3023 36.9856 44.9999 37.3454 45.6669C37.7233 46.3664 38.1312 47.0459 38.6199 47.6735C38.9502 48.0977 39.305 48.5018 39.7367 48.8284C39.9219 48.9692 40.1159 49.1044 40.3242 49.2051C40.7666 49.4147 41.2458 49.4335 41.7257 49.4197C41.8296 49.4166 41.9322 49.3809 42.0367 49.3778C42.6899 49.3597 43.3431 49.3365 43.9963 49.3321C45.0931 49.3259 46.1906 49.3165 47.2874 49.374C47.5314 49.3866 47.7754 49.4066 48.0188 49.4278C48.2741 49.4497 48.5293 49.476 48.7846 49.5042C49.3402 49.5661 49.8989 49.6105 50.4508 49.7C51.0702 49.8014 51.6853 49.9359 52.299 50.0717C53.2557 50.2825 54.1823 50.5897 55.0896 50.9595C56.2308 51.4238 57.2926 52.0244 58.2617 52.784C59.1208 53.4572 59.886 54.2218 60.5173 55.1165C60.5824 55.2085 60.6606 55.2917 60.7332 55.3799C60.7544 55.3668 60.7751 55.3536 60.7964 55.3405C60.7394 55.1296 60.6456 54.9332 60.5686 54.728C60.2501 53.8883 59.8766 53.0749 59.4405 52.2903C58.5977 50.7687 57.5616 49.4009 56.2871 48.2122C55.5676 47.5421 54.7949 46.9445 53.9659 46.4165C52.7608 45.6494 51.4738 45.0544 50.1254 44.5914C49.7188 44.4525 49.3002 44.3474 48.8847 44.236C48.0951 44.0239 47.2968 43.8656 46.4784 43.8212C46.3501 43.8149 46.2231 43.7943 46.0948 43.7849C45.6531 43.753 45.2114 43.7098 44.7697 43.6992C44.2572 43.6873 43.7448 43.6973 43.2311 43.738C42.6042 43.7868 41.9723 43.7799 41.3422 43.7968C41.3303 43.7968 41.319 43.7968 41.3072 43.7974C40.5601 43.8456 39.8156 43.7999 39.0735 43.7217C38.5292 43.6635 37.9905 43.574 37.4586 43.432C37.0207 43.315 36.5864 43.1924 36.1735 43.0022C36.1603 42.9953 36.1341 43.0172 36.104 43.0316C36.1084 43.0597 36.1078 43.0935 36.1197 43.121C36.196 43.29 36.2717 43.4602 36.3549 43.626Z" fill="#CFB53B"/>
<path d="M86.8145 50.514C86.3496 50.4846 85.8847 50.4433 85.4199 50.4246C84.93 50.4058 84.4394 50.4045 83.9489 50.4033C82.9328 50.4001 81.9167 50.4001 80.9006 50.4033C80.4107 50.4045 79.9202 50.4095 79.4296 50.4258C79.0799 50.4371 78.7314 50.4665 78.3822 50.4921C78.1858 50.5053 77.9887 50.5378 77.791 50.5397C76.9382 50.5484 76.0935 50.6711 75.2482 50.7643C74.7051 50.825 74.1645 50.9176 73.6246 51.0108C73.0052 51.1159 72.3901 51.2467 71.7807 51.4031C71.1269 51.5708 70.4831 51.7641 69.848 51.9944C68.9777 52.3116 68.1524 52.7108 67.3747 53.2094C66.8542 53.5429 66.3649 53.9221 65.9219 54.3563C65.2524 55.0145 64.6831 55.7516 64.1925 56.5512C64.1268 56.6588 64.0643 56.7677 63.9641 56.936C64.093 56.9291 64.1537 56.9391 64.2038 56.921C64.5961 56.7758 64.9834 56.6156 65.3782 56.4773C66.0258 56.2521 66.6746 56.0287 67.3272 55.8235C67.8045 55.6734 68.2876 55.5457 68.7731 55.4218C69.4613 55.2479 70.1502 55.0733 70.8447 54.9238C71.5048 54.7824 72.1718 54.6698 72.8356 54.5503C73.5132 54.4295 74.1965 54.3475 74.8797 54.27C75.1006 54.2449 75.3189 54.2193 75.5404 54.1968C75.7018 54.1792 75.8645 54.1642 76.0266 54.1498C76.3626 54.1192 76.6992 54.0773 77.0364 54.0622C77.724 54.0328 78.4116 54.0191 79.0993 53.9978C79.1462 53.9965 79.1925 53.9928 79.2394 53.9853C79.6574 53.9221 80.0778 53.949 80.497 53.9634C81.1021 53.9834 81.7077 54.0253 82.3127 54.0485C82.7319 54.0641 83.1524 54.0529 83.5703 54.1135C83.8463 54.1542 84.1272 54.1767 84.4062 54.188C85.1189 54.2161 85.8215 54.3282 86.5279 54.4132C86.6312 54.4264 86.7331 54.462 86.8364 54.4677C87.3732 54.4933 87.895 54.6272 88.4269 54.6948C88.5295 54.7079 88.6308 54.7486 88.7334 54.7561C89.1182 54.783 89.4836 54.9132 89.8653 54.9576C90.0373 54.9782 90.21 55.0139 90.3802 55.0489C90.6874 55.1127 90.994 55.1797 91.3012 55.2473C91.6065 55.3136 91.9112 55.3855 92.2172 55.4518C92.2353 55.4556 92.2585 55.4362 92.2923 55.4212C92.4412 55.0026 92.592 54.5753 92.7446 54.1486C92.8923 53.7325 93.0443 53.3171 93.1882 52.8991C93.3578 52.4042 93.518 51.9055 93.6919 51.4112C93.9428 50.6986 94.2025 49.9903 94.4559 49.2777C94.4684 49.2426 94.4546 49.1989 94.4534 49.1438C94.3971 49.1676 94.3633 49.1763 94.3357 49.1938C94.031 49.3866 93.7338 49.593 93.4222 49.7732C92.6652 50.2099 91.8393 50.4496 90.9765 50.5541C90.5842 50.6022 90.1856 50.6191 89.7902 50.6154C89.0319 50.6047 88.2735 50.571 87.5159 50.5447C87.28 50.5384 87.0472 50.5278 86.8145 50.514Z" fill="#CFB53B"/>
<path d="M32.4538 55.4511C32.7804 55.3691 33.107 55.2847 33.4336 55.2027C33.4787 55.1914 33.5262 55.1921 33.5725 55.1846C33.6977 55.1614 33.8228 55.1376 33.948 55.1113C34.0387 55.092 34.1281 55.0638 34.2195 55.0469C34.5743 54.9818 34.929 54.9224 35.2838 54.8567C35.6723 54.7841 36.059 54.7059 36.4469 54.6315C36.4813 54.6252 36.517 54.6271 36.5514 54.6221C36.7698 54.5902 36.9887 54.557 37.2071 54.5245C37.2872 54.5126 37.3673 54.4863 37.4474 54.4869C37.7064 54.4882 37.9567 54.4344 38.2094 54.3906C38.3358 54.3693 38.4635 54.3549 38.5905 54.3405C38.8345 54.3142 39.0779 54.2892 39.3219 54.2654C39.5765 54.2398 39.8318 54.216 40.0865 54.1916C40.1446 54.186 40.2035 54.1878 40.261 54.181C41.3391 54.0533 42.4215 54.0052 43.507 53.9976C43.7748 53.9964 44.042 53.9582 44.3104 53.9576C44.7177 53.9538 45.125 53.9563 45.5336 53.992C45.9853 54.0314 46.4415 54.0101 46.8963 54.0421C47.395 54.0777 47.898 54.0721 48.3967 54.129C48.7558 54.1703 49.1194 54.1753 49.4779 54.2204C50.0322 54.2898 50.5847 54.3818 51.1378 54.4631C51.1835 54.47 51.2304 54.4732 51.2767 54.48C51.7478 54.5551 52.2202 54.6239 52.6901 54.7072C52.9992 54.7622 53.3051 54.8348 53.6117 54.9011C54.1692 55.0213 54.7323 55.1239 55.2829 55.2703C56.0575 55.4761 56.8333 55.6807 57.5973 55.931C58.0165 56.0674 58.4401 56.1925 58.8549 56.342C59.3586 56.5216 59.8578 56.7143 60.3571 56.9045C60.4372 56.9352 60.5092 56.9596 60.5968 56.892C60.568 56.8319 60.5429 56.7675 60.5067 56.7106C60.3302 56.4359 60.1544 56.1606 59.9723 55.8897C59.4812 55.1595 58.9068 54.5032 58.2323 53.9363C57.2219 53.086 56.0731 52.4822 54.8437 52.0167C54.3425 51.8272 53.8338 51.6632 53.3158 51.5312C52.8202 51.4055 52.3253 51.2747 51.8242 51.1708C51.1178 51.0238 50.4076 50.8899 49.6875 50.8186C49.1663 50.7666 48.6482 50.679 48.127 50.6327C47.4307 50.5696 46.7324 50.537 46.0354 50.4807C45.2671 50.4181 44.4969 50.4125 43.7273 50.4075C42.2913 50.3987 40.8554 50.4156 39.4195 50.4225C39.3381 50.4225 39.2543 50.415 39.1748 50.43C38.6674 50.5176 38.1469 50.4275 37.6413 50.542C36.7322 50.5683 35.8231 50.5996 34.9134 50.6196C34.6343 50.6265 34.354 50.5946 34.075 50.5952C33.6032 50.5971 33.1521 50.4776 32.6979 50.3775C32.5396 50.3418 32.38 50.2993 32.2286 50.2405C31.5197 49.9664 30.8396 49.6398 30.2408 49.1618C30.2189 49.1443 30.1826 49.1443 30.1301 49.1299C30.869 51.249 31.6004 53.3476 32.3299 55.4423C32.3856 55.4467 32.4219 55.4592 32.4538 55.4511Z" fill="#CFB53B"/>
<path d="M66.3962 49.0492C66.983 48.3053 67.6287 47.6132 68.3301 46.9788C69.0215 46.3531 69.7642 45.7875 70.5638 45.2989C71.3014 44.8484 72.0592 44.4398 72.8575 44.1095C73.4056 43.8842 73.9593 43.674 74.5256 43.495C74.9704 43.3543 75.4203 43.2348 75.8714 43.1278C76.3131 43.0233 76.7542 42.9169 77.1903 42.7905C77.9999 42.5546 78.615 42.0754 79.0661 41.369C79.506 40.6807 79.7399 39.9143 79.9521 39.1397C80.0315 38.8481 80.0891 38.5503 80.1498 38.2537C80.2255 37.8902 80.3106 37.5261 80.3631 37.1569C80.4482 36.5575 80.5095 35.9538 80.5827 35.3519C80.6071 35.1441 80.6347 34.9364 80.6559 34.7287C80.7016 34.2995 80.7442 33.8709 80.7861 33.4417C80.813 33.1639 80.838 32.8848 80.8599 32.6058C80.8674 32.5226 80.8612 32.4387 80.7473 32.3987C80.6484 32.4281 80.5339 32.4531 80.4269 32.4963C79.8776 32.7184 79.3308 32.9461 78.782 33.1708C77.5945 33.6582 76.457 34.2475 75.3471 34.8882C74.3454 35.4664 73.3893 36.1127 72.4752 36.8203C71.6631 37.451 70.886 38.1205 70.1634 38.8506C69.8349 39.1823 69.5277 39.5345 69.2073 39.873C68.6204 40.4937 68.103 41.1719 67.6068 41.8639C66.8992 42.8493 66.276 43.8886 65.7273 44.9729C65.3801 45.6599 65.051 46.3525 64.7669 47.067C64.603 47.4787 64.449 47.8942 64.3026 48.3109C64.1206 48.8264 63.941 49.3426 63.7808 49.8651C63.6513 50.2874 63.55 50.7166 63.4423 51.1452C63.3128 51.6539 63.1764 52.16 63.0682 52.6731C62.943 53.2662 62.8448 53.865 62.7372 54.4619C62.7172 54.5733 62.6915 54.6859 62.7309 54.8154C62.8573 54.781 62.8861 54.6734 62.9336 54.587C63.3015 53.9251 63.6576 53.2569 64.0348 52.6005C64.745 51.3654 65.5121 50.1685 66.3962 49.0492Z" fill="#CFB53B"/>
<path d="M11.8922 83.2112C11.9967 83.2193 12.11 83.2256 12.2314 83.2293C12.3527 83.2337 12.4816 83.2449 12.6193 83.265C12.7563 83.2862 12.8739 83.3363 12.9709 83.417C13.0679 83.4977 13.1161 83.631 13.1161 83.8181C13.1161 84.0114 13.0754 84.2404 12.9947 84.5025C12.9146 84.7653 12.7425 85.2502 12.4797 85.9566C12.2176 86.6636 12.0111 87.2117 11.8616 87.5984C11.7127 87.9876 11.5844 88.3186 11.4793 88.5932C11.3742 88.3023 11.2046 87.8337 10.9706 87.188C10.736 86.541 10.5464 86.0136 10.4006 85.6056C10.2555 85.197 10.1278 84.8285 10.019 84.4969C9.91009 84.1659 9.85503 83.9069 9.85503 83.7211C9.85503 83.519 9.90759 83.3976 10.0127 83.3582C10.1178 83.3175 10.2473 83.2831 10.4006 83.2543C10.5545 83.2268 10.659 83.2124 10.716 83.2124H10.8855V83.0185H5.55226V83.2124L5.92829 83.26C6.17856 83.3006 6.34186 83.3776 6.41882 83.4915C6.49577 83.6047 6.59026 83.778 6.70413 84.012L7.20091 85.2978L5.98835 88.485C5.88386 88.2034 5.74997 87.8462 5.58855 87.4182C5.42712 86.9902 5.24504 86.4972 5.04295 85.9397C4.84086 85.3829 4.67317 84.9074 4.53991 84.5157C4.40601 84.1247 4.33969 83.8393 4.33969 83.6616C4.33969 83.5159 4.37848 83.417 4.45544 83.3644C4.53178 83.3119 4.66317 83.2731 4.84899 83.2487L5.23692 83.2124V83.0185H0V83.2124L0.424214 83.26C0.626308 83.285 0.777719 83.3519 0.879705 83.4608C0.981064 83.5703 1.09181 83.7536 1.21319 84.012L1.58922 84.9581L4.06377 91.9037H5.0342L7.3517 85.6488L9.56033 91.9037H10.5295L13.1261 84.9818L13.4908 84.0489C13.6041 83.7824 13.7336 83.5953 13.8788 83.4915C14.0245 83.3857 14.2266 83.3138 14.4857 83.2725L15.0194 83.2118V83.0178H11.8916V83.2112H11.8922Z" fill="#1D1B1B"/>
<path d="M16.4378 83.2113L17.0922 83.2589C17.3425 83.292 17.5102 83.359 17.5953 83.4597C17.6804 83.5611 17.7348 83.74 17.7592 83.999L17.7836 84.5565V90.314L17.7592 90.8721C17.7348 91.1218 17.6766 91.3001 17.5828 91.4058C17.4902 91.5103 17.3331 91.5772 17.1104 91.606C16.8883 91.6336 16.7287 91.6498 16.6317 91.6536C16.5348 91.658 16.4578 91.6604 16.4009 91.6604V91.855H22.1108V91.6604L21.4801 91.6235C21.2298 91.5904 21.0578 91.5291 20.9645 91.4358C20.8719 91.342 20.8131 91.1624 20.7894 90.8959L20.765 90.339V84.5327L20.7894 83.974C20.8131 83.7 20.8682 83.5154 20.9533 83.4228C21.0377 83.3302 21.2054 83.2714 21.4563 83.247L22.1108 83.2107V83.0167H16.4378V83.2113V83.2113Z" fill="#1D1B1B"/>
<path d="M41.645 83.2588C40.8085 83.0818 39.9175 82.9929 38.9721 82.9929L34.451 83.0173V83.2113C34.5636 83.2194 34.6913 83.2257 34.8327 83.2294C34.9741 83.2338 35.1317 83.2469 35.3057 83.2714C35.479 83.2951 35.6148 83.3608 35.7117 83.4653C35.8087 83.5704 35.8688 83.7525 35.8938 84.0109L35.9182 84.5684V90.3146L35.8938 90.8727C35.8694 91.1305 35.8112 91.3113 35.718 91.412C35.6254 91.5121 35.4915 91.5741 35.3176 91.5935C35.1436 91.6141 34.9885 91.6304 34.8508 91.6423C34.7132 91.6542 34.5924 91.6604 34.4873 91.6604V91.855H39.5903C40.5282 91.855 41.3503 91.7799 42.0567 91.6304C42.7637 91.4809 43.4351 91.1055 44.0689 90.5029C44.7033 89.9004 45.0206 88.9656 45.0206 87.6974C45.0206 86.3716 44.667 85.3455 43.96 84.6184C43.253 83.8902 42.4815 83.4378 41.645 83.2588ZM41.4386 89.9442C41.2321 90.6593 41.0187 91.1004 40.7966 91.2663C40.5745 91.4321 40.3361 91.5347 40.0815 91.5741C39.8262 91.6147 39.5459 91.6348 39.2393 91.6348C39.1661 91.6348 39.1054 91.6329 39.0572 91.6291C39.0091 91.6248 38.9559 91.6229 38.8996 91.6229V83.2463H39.0453C39.2149 83.2463 39.4189 83.2545 39.6572 83.2707C39.8956 83.2864 40.0715 83.3195 40.1847 83.3677C40.7184 83.5773 41.1126 84.0966 41.3672 84.925C41.6219 85.7534 41.7489 86.6932 41.7489 87.7431C41.7476 88.4964 41.645 89.229 41.4386 89.9442Z" fill="#1D1B1B"/>
<path d="M30.3716 86.5016C29.8423 86.2557 29.3311 86.0386 28.8381 85.8534C28.345 85.6675 27.9596 85.5142 27.6805 85.3929C27.4021 85.2715 27.155 85.1075 26.941 84.9017C26.727 84.6952 26.62 84.4387 26.62 84.1321C26.62 83.8412 26.7608 83.5984 27.043 83.4051C27.3245 83.2111 27.6311 83.1141 27.9615 83.1141C28.4533 83.1141 28.8743 83.2055 29.2253 83.3869C29.5757 83.5696 29.9299 83.8669 30.289 84.2785C30.6475 84.6902 30.8903 85.0625 31.0142 85.3935C31.1393 85.7245 31.2225 85.9585 31.2625 86.0967H31.4803V82.8839H31.25C31.25 83.1749 31.2131 83.4189 31.1405 83.6178C31.068 83.8155 30.9147 83.9144 30.68 83.9144L29.4193 83.2118C28.9826 82.9934 28.5346 82.8845 28.0741 82.8845C27.2413 82.8845 26.5068 83.1592 25.868 83.7092C25.2292 84.2579 24.9107 84.9286 24.9107 85.7214C24.9107 86.7312 25.2135 87.4176 25.8198 87.7817C26.4261 88.154 26.9998 88.4487 27.541 88.667C28.0822 88.8854 28.5959 89.0894 29.0802 89.2789C29.5651 89.4698 29.9004 89.6656 30.0863 89.8665C30.2715 90.0686 30.3653 90.3438 30.3653 90.6911C30.3653 90.982 30.2396 91.2317 29.9893 91.4425C29.739 91.6528 29.4155 91.7566 29.0195 91.7566C28.3325 91.7566 27.7287 91.5796 27.2075 91.2242C26.6864 90.8682 26.2659 90.4227 25.9468 89.884C25.6277 89.3465 25.4094 88.8841 25.2924 88.4962C25.1747 88.1083 25.0921 87.8299 25.044 87.6597H24.8375V91.9994H25.044C25.1003 91.5226 25.1616 91.1835 25.226 90.9814C25.2911 90.7793 25.4575 90.6786 25.7234 90.6786C25.8286 90.6786 26.2215 90.8988 26.9016 91.3387C27.5817 91.7798 28.2693 92 28.9651 92C29.7591 92 30.4936 91.7435 31.1693 91.2311C31.8451 90.718 32.1835 90.061 32.1835 89.2608C32.1835 88.6151 32.014 88.0545 31.6749 87.5821C31.3358 87.1097 30.9009 86.7481 30.3716 86.5016Z" fill="#1D1B1B"/>
<path d="M98.7061 84.1622C97.7363 83.31 96.5775 82.8833 95.2267 82.8833C93.8777 82.8833 92.7265 83.3031 91.7723 84.144C90.8188 84.9843 90.342 86.0836 90.342 87.442C90.342 88.7584 90.8088 89.8477 91.7417 90.708C92.6752 91.5696 93.8371 91.9994 95.2261 91.9994C96.56 91.9994 97.7156 91.5633 98.6936 90.6905C99.6715 89.817 100.16 88.734 100.16 87.442C100.161 86.1074 99.6765 85.0144 98.7061 84.1622ZM96.7608 89.217C96.7083 89.7951 96.6238 90.2681 96.5068 90.6354C96.3898 91.0027 96.2221 91.2836 96.0032 91.4788C95.7848 91.6722 95.5264 91.7698 95.2273 91.7698C94.6386 91.7698 94.2544 91.5195 94.0761 91.0183C93.899 90.5172 93.777 90.0041 93.7132 89.4779C93.6481 88.953 93.6156 88.2735 93.6156 87.442C93.6156 86.8351 93.6425 86.2432 93.695 85.6663C93.7476 85.0882 93.8321 84.6158 93.9491 84.2473C94.0667 83.8794 94.2337 83.5985 94.4527 83.4045C94.6705 83.2105 94.9295 83.1136 95.2273 83.1136C95.8173 83.1136 96.234 83.4533 96.4762 84.1315C96.6213 84.5607 96.7196 85.0394 96.7671 85.5681C96.8153 86.098 96.8403 86.7225 96.8403 87.4414C96.8403 88.0476 96.8134 88.6389 96.7608 89.217Z" fill="#1D1B1B"/>
<path d="M56.0274 84.1622C55.0576 83.31 53.8983 82.8833 52.5481 82.8833C51.1991 82.8833 50.0466 83.3031 49.0937 84.144C48.1395 84.9843 47.6634 86.0836 47.6634 87.442C47.6634 88.7584 48.1302 89.8477 49.0631 90.708C49.9972 91.5696 51.1584 91.9994 52.5481 91.9994C53.8814 91.9994 55.0376 91.5633 56.0156 90.6905C56.9929 89.817 57.4815 88.734 57.4815 87.442C57.4815 86.1074 56.9966 85.0144 56.0274 84.1622ZM54.0816 89.217C54.029 89.7951 53.9439 90.2681 53.8269 90.6354C53.7093 91.0027 53.5416 91.2836 53.3239 91.4788C53.1055 91.6722 52.8471 91.7698 52.5481 91.7698C51.958 91.7698 51.5745 91.5195 51.3962 91.0183C51.2185 90.5172 51.0977 90.0041 51.0327 89.4779C50.9676 88.953 50.9357 88.2735 50.9357 87.442C50.9357 86.8351 50.962 86.2432 51.0145 85.6663C51.0671 85.0882 51.1522 84.6158 51.2692 84.2473C51.3868 83.8794 51.5545 83.5985 51.7722 83.4045C51.99 83.2105 52.249 83.1136 52.5481 83.1136C53.1381 83.1136 53.5542 83.4533 53.7963 84.1315C53.9421 84.5607 54.0391 85.0394 54.0872 85.5681C54.1354 86.098 54.1604 86.7225 54.1604 87.4414C54.1604 88.0476 54.1342 88.6389 54.0816 89.217Z" fill="#1D1B1B"/>
<path d="M123.502 84.6178C122.795 83.8901 122.023 83.4378 121.186 83.2588C120.35 83.0818 119.459 82.9929 118.513 82.9929L113.993 83.0173V83.2113C114.105 83.2194 114.232 83.2257 114.374 83.2294C114.516 83.2338 114.673 83.2469 114.847 83.2714C115.02 83.2951 115.156 83.3608 115.253 83.4653C115.349 83.5704 115.41 83.7525 115.434 84.0109L115.459 84.5684V90.3146L115.434 90.8727C115.41 91.1305 115.351 91.3113 115.258 91.412C115.166 91.5121 115.032 91.5741 114.859 91.5935C114.685 91.6141 114.529 91.6304 114.392 91.6423C114.254 91.6542 114.133 91.6604 114.028 91.6604V91.855H119.131C120.068 91.855 120.891 91.7799 121.598 91.6304C122.305 91.4809 122.975 91.1055 123.611 90.5029C124.245 89.9004 124.562 88.9656 124.562 87.6974C124.562 86.3703 124.209 85.3448 123.502 84.6178ZM120.98 89.9442C120.774 90.6593 120.56 91.1004 120.338 91.2663C120.116 91.4321 119.878 91.5347 119.622 91.5741C119.368 91.6147 119.087 91.6348 118.78 91.6348C118.708 91.6348 118.646 91.6329 118.598 91.6291C118.549 91.6248 118.497 91.6229 118.441 91.6229V83.2463H118.586C118.755 83.2463 118.96 83.2545 119.198 83.2707C119.437 83.2864 119.612 83.3195 119.725 83.3677C120.259 83.5773 120.652 84.0966 120.908 84.925C121.163 85.7534 121.289 86.6932 121.289 87.7431C121.289 88.4964 121.186 89.229 120.98 89.9442Z" fill="#1D1B1B"/>
<path d="M110.762 89.3692C110.394 89.9499 109.97 90.4642 109.49 90.9078C109.008 91.3533 108.525 91.5741 108.041 91.5741L106.998 91.611V84.5327L107.023 83.974C107.047 83.7081 107.103 83.5267 107.192 83.4284C107.282 83.3321 107.447 83.2714 107.689 83.247L108.489 83.2107V83.0167H102.622V83.2107C102.727 83.2188 102.844 83.2251 102.974 83.2288C103.103 83.2332 103.256 83.2464 103.434 83.2708C103.611 83.2945 103.743 83.3583 103.828 83.4591C103.914 83.5604 103.967 83.7394 103.992 83.9984L104.016 84.5559V90.3134L103.992 90.8715C103.967 91.1211 103.902 91.2994 103.798 91.4052C103.693 91.5097 103.521 91.5766 103.283 91.6054C103.045 91.6329 102.866 91.6492 102.749 91.6529C102.632 91.6573 102.541 91.6598 102.476 91.6598V91.8544H111.955V87.5266H111.761C111.463 88.1723 111.129 88.7873 110.762 89.3692Z" fill="#1D1B1B"/>
<path d="M66.2397 88.2778L64.2007 83.0171H59.7121V83.211C59.7928 83.2192 59.9148 83.2273 60.0774 83.2348C60.2414 83.243 60.4053 83.2586 60.5724 83.2836C60.7394 83.308 60.8814 83.3844 61.0003 83.5133C61.1179 83.6428 61.2062 83.8042 61.2625 83.9988L61.2875 84.5563V90.1811L61.2631 90.763C61.2387 91.0132 61.1674 91.2072 61.051 91.3442C60.9328 91.4825 60.7732 91.5657 60.5717 91.5926C60.369 91.6214 60.197 91.637 60.0568 91.6414C59.9141 91.6458 59.784 91.6521 59.6626 91.6596V91.8541H63.1539V91.6596L62.3055 91.5976C62.054 91.5657 61.875 91.4831 61.7661 91.3498C61.6573 91.2153 61.591 91.0207 61.5666 90.7623L61.5422 90.1805V84.5187H61.6147L64.5723 91.8535H65.3237L67.4698 85.5498L67.9672 83.9863H68.0392C68.0154 84.2853 67.9923 84.6057 67.9735 84.9504C67.9522 85.2939 67.9428 85.5899 67.9428 85.8414V90.3388L67.9184 90.8956C67.894 91.1703 67.8409 91.353 67.7608 91.4418C67.6788 91.5307 67.5092 91.5901 67.2521 91.6233L66.6933 91.6602V91.8548H72.2212V91.6602L71.6143 91.6114C71.3634 91.5789 71.1963 91.5119 71.1119 91.4118C71.0268 91.3111 70.9717 91.1302 70.948 90.8725L70.9236 90.3144V84.5681L70.948 84.0107C70.9717 83.7523 71.0324 83.5702 71.13 83.4651C71.2264 83.3606 71.4028 83.2918 71.6568 83.2586C71.9115 83.2273 72.0785 83.211 72.1605 83.211H72.4389V83.0171H68.0723L66.2397 88.2778Z" fill="#1D1B1B"/>
<path d="M82.4873 87.8782C82.6081 87.8864 82.7419 87.8914 82.8884 87.8964C83.0335 87.9007 83.195 87.9139 83.3726 87.9389C83.5503 87.962 83.6811 88.024 83.7662 88.1204C83.8513 88.2167 83.9063 88.3982 83.9301 88.6659C83.9545 88.7867 83.967 89.0207 83.967 89.3692V89.8416C83.967 90.1407 83.9627 90.3916 83.9545 90.593C83.9464 90.7939 83.922 90.9709 83.8819 91.1205C83.8419 91.27 83.7399 91.4052 83.5791 91.5265C83.4177 91.6473 83.1831 91.708 82.8765 91.708C82.2533 91.708 81.8178 91.2856 81.5663 90.4416C81.316 89.5969 81.1909 88.5364 81.1909 87.2588C81.1909 86.1927 81.3605 85.2579 81.6996 84.4539C82.0387 83.6499 82.5568 83.247 83.2506 83.247C84.1234 83.247 84.8405 83.5942 85.4023 84.29C85.9636 84.9838 86.3659 85.8341 86.6086 86.8346H86.8145V82.9191H86.5717C86.4985 83.2426 86.4228 83.491 86.3421 83.6643C86.2608 83.8382 86.1025 83.9252 85.8691 83.9252C85.7877 83.9096 85.408 83.7312 84.7291 83.3921C84.0509 83.0517 83.3313 82.8828 82.5724 82.8828C81.1821 82.8828 80.0384 83.2989 79.1418 84.131C78.2446 84.9638 77.7972 86.0675 77.7972 87.4409C77.7972 88.7498 78.2045 89.8372 79.0211 90.7013C79.8369 91.566 80.8424 91.9983 82.0387 91.9983C82.904 91.9983 83.5979 91.825 84.1234 91.4777C84.649 91.1286 85.0532 90.9553 85.336 90.9553C85.6514 90.9553 85.941 91.0529 86.2032 91.2462C86.4666 91.4414 86.6499 91.6548 86.755 91.8888H86.9371L86.9127 90.7976V89.2109L86.9371 88.6403C86.9609 88.3662 87.0153 88.1817 87.101 88.0891C87.1855 87.9965 87.3526 87.9383 87.6035 87.9133L88.1609 87.877V87.6824H82.4885V87.8782H82.4873Z" fill="#1D1B1B"/>
<path d="M36.3718 69.4407H36.445C36.42 69.7404 36.3981 70.0614 36.3781 70.4043C36.3581 70.7478 36.3481 71.045 36.3481 71.2953V75.7926L36.3236 76.3501C36.2992 76.6248 36.2467 76.8062 36.166 76.8957C36.0853 76.9845 35.9151 77.0452 35.6567 77.0771L35.0992 77.1134V77.3086H40.6264V77.1134L40.0201 77.0659C39.7705 77.0327 39.6028 76.967 39.5177 76.865C39.4326 76.7649 39.3782 76.5853 39.3538 76.3269L39.3294 75.7682V70.0232L39.3538 69.4651C39.3782 69.2061 39.4389 69.0247 39.5353 68.9196C39.6322 68.8145 39.808 68.7462 40.0621 68.7143C40.3173 68.6812 40.485 68.6655 40.5651 68.6655H40.8442V68.4709H36.4776L34.645 73.7323L32.6065 68.4709H28.1166V68.6655C28.1974 68.6737 28.3194 68.6812 28.4827 68.6893C28.6453 68.6974 28.8105 68.7143 28.977 68.7375C29.1446 68.7619 29.2867 68.8389 29.4049 68.9684C29.5232 69.0973 29.6101 69.2593 29.6677 69.452L29.6921 70.0114V75.6343L29.6677 76.2168C29.6433 76.4671 29.5726 76.6617 29.455 76.7987C29.338 76.9363 29.1784 77.0189 28.9763 77.0471C28.7742 77.0746 28.6022 77.0915 28.4608 77.0959C28.3194 77.0997 28.188 77.1053 28.0672 77.1128V77.308H31.5585V77.1128L30.7101 77.0527C30.4598 77.0202 30.2796 76.937 30.1701 76.805C30.0612 76.6711 29.9943 76.4752 29.9705 76.2168L29.9461 75.6343V69.9745H30.0187L32.9763 77.308H33.7283L35.8738 71.0043L36.3718 69.4407Z" fill="#1D1B1B"/>
<path d="M20.1774 77.1126C20.0473 77.1045 19.9147 77.0969 19.7776 77.0888C19.64 77.0813 19.498 77.0625 19.3528 77.0338C19.2076 77.0062 19.0888 76.9562 18.9949 76.8836C18.9023 76.8104 18.856 76.6809 18.856 76.4957C18.856 76.3261 18.8961 76.0946 18.9768 75.8043L19.3522 74.5436H21.6315L22.067 75.8293C22.1809 76.1603 22.2365 76.415 22.2365 76.5926C22.2365 76.7622 22.1921 76.8736 22.1033 76.9261C22.0144 76.9787 21.8693 77.0206 21.6665 77.0532C21.4651 77.0857 21.3256 77.1038 21.2492 77.1076C21.1723 77.1113 21.0853 77.1132 20.9883 77.1132V77.3084H26.7464V77.1132L26.2496 77.0657C26.04 77.0325 25.8761 76.9631 25.7591 76.8529C25.6415 76.7447 25.5263 76.5645 25.4131 76.3136L25.0377 75.3688L22.4793 68.4344H21.146L18.831 75.3688C18.7747 75.5384 18.7027 75.7273 18.6176 75.9376C18.5319 76.1478 18.4556 76.3305 18.3855 76.4832C18.3173 76.6371 18.2128 76.7641 18.0758 76.8642C17.9375 76.9662 17.7342 77.0325 17.4658 77.065L16.7469 77.1126V77.3078H20.1774V77.1126V77.1126ZM20.4684 71.3069L21.5352 74.2889H19.4379L20.4684 71.3069Z" fill="#1D1B1B"/>
<path d="M90.6161 77.0532C90.4134 77.0857 90.2732 77.1038 90.1969 77.1076C90.1199 77.1113 90.0342 77.1132 89.9366 77.1132V77.3084H95.6947V77.1132L95.1973 77.0657C94.9871 77.0325 94.8231 76.9631 94.7068 76.8529C94.5891 76.7447 94.474 76.5645 94.3614 76.3136L93.9847 75.3688L91.4276 68.4344H90.0943L87.7793 75.3688C87.7217 75.5384 87.651 75.7273 87.5653 75.9376C87.4796 76.1478 87.4014 76.3305 87.3332 76.4832C87.2637 76.6371 87.1611 76.7641 87.0228 76.8642C86.8833 76.9662 86.6806 77.0325 86.4128 77.065L85.6945 77.1126V77.3078H89.1245V77.1126C88.9937 77.1045 88.8604 77.0969 88.724 77.0888C88.5851 77.0813 88.4456 77.0625 88.2998 77.0338C88.1547 77.0062 88.0339 76.9562 87.9426 76.8836C87.8487 76.8104 87.8024 76.6809 87.8024 76.4957C87.8024 76.3261 87.8418 76.0946 87.9226 75.8043L88.2998 74.5436H90.5785L91.0146 75.8293C91.1273 76.1603 91.1842 76.415 91.1842 76.5926C91.1842 76.7622 91.1392 76.8736 91.0509 76.9261C90.9627 76.9787 90.8176 77.0206 90.6161 77.0532ZM88.3862 74.2889L89.416 71.3069L90.4828 74.2889H88.3862Z" fill="#1D1B1B"/>
<path d="M99.6039 77.0227C99.3818 76.9864 99.216 76.9038 99.1065 76.7743C98.997 76.6454 98.9313 76.447 98.9069 76.1805L98.8825 75.598V69.9381H98.9313L104.688 77.308H106.168V70.2291L106.192 69.6472C106.216 69.3888 106.286 69.1842 106.404 69.0347C106.521 68.8858 106.693 68.7932 106.919 68.7569C107.145 68.7199 107.32 68.6974 107.446 68.6899C107.571 68.6818 107.687 68.6743 107.792 68.6661V68.4716H104.301V68.6661C104.414 68.6743 104.537 68.6818 104.671 68.6899C104.804 68.6981 104.98 68.7206 105.198 68.7569C105.416 68.7932 105.58 68.8776 105.689 69.0109C105.798 69.1448 105.864 69.3406 105.888 69.5984L105.913 70.1809V74.0469H105.864L101.508 68.4716H96.8704V68.6661H97.237C97.3997 68.6661 97.5686 68.6937 97.7432 68.7512C97.9184 68.8075 98.0785 68.9083 98.2262 69.0541C98.3713 69.1986 98.4977 69.3563 98.6041 69.5265L98.6285 70.0846V75.5986L98.6041 76.1811C98.5559 76.6748 98.3657 76.947 98.036 77.0001C97.7075 77.0527 97.4766 77.0834 97.3477 77.0909C97.217 77.099 97.0993 77.1065 96.9936 77.1146V77.3099H100.495V77.1146C100.439 77.1065 100.331 77.099 100.174 77.0909C100.015 77.0821 99.8254 77.0596 99.6039 77.0227Z" fill="#1D1B1B"/>
<path d="M83.367 76.4958C83.9883 75.857 84.3556 75.0524 84.4707 74.0832L84.2642 74.0463C84.1191 74.9035 83.8231 75.5974 83.3795 76.1317C82.9347 76.666 82.3446 76.9313 81.6101 76.9313C80.8167 76.9313 80.2167 76.5134 79.81 75.6762C79.4008 74.8403 79.1975 73.853 79.1975 72.7136C79.1975 71.6556 79.367 70.7302 79.7062 69.9375C80.0459 69.1448 80.5677 68.75 81.271 68.75C81.8103 68.75 82.2552 68.9114 82.6037 69.2343C82.9503 69.5584 83.1987 69.8937 83.3488 70.2403C83.4971 70.5876 83.7499 71.2539 84.1066 72.24H84.313V68.4096H84.0709C84.0365 68.7168 83.9802 68.9527 83.9013 69.1185C83.8194 69.2843 83.6579 69.3669 83.4164 69.3669L82.1307 68.6398C81.6946 68.4371 81.1765 68.337 80.5796 68.337C79.1806 68.337 78.0394 68.7594 77.1547 69.6034C76.2699 70.4474 75.8276 71.5455 75.8276 72.8945C75.8276 74.2115 76.2731 75.3008 77.1678 76.1617C78.0594 77.022 79.2 77.4525 80.5915 77.4525C81.8191 77.4525 82.7438 77.134 83.367 76.4958Z" fill="#1D1B1B"/>
<path d="M47.4751 68.7006C47.5639 68.7006 47.746 68.7062 48.0213 68.7137C48.2953 68.7219 48.6332 68.7456 49.0336 68.7851C49.4335 68.8251 49.9284 69.1555 50.5184 69.7736C51.1084 70.3918 51.6095 71.1532 52.0219 72.058H52.2158V68.4703H42.8945V68.6649C43.0078 68.6731 43.1348 68.6781 43.2762 68.6825C43.4176 68.6862 43.5752 68.7 43.7492 68.725C43.9225 68.7494 44.0576 68.8138 44.1552 68.919C44.2516 69.0241 44.3123 69.2055 44.3373 69.4645L44.3617 70.0227V75.7676L44.3373 76.3263C44.3123 76.5847 44.2541 76.7643 44.1609 76.8644C44.0683 76.9664 43.9344 77.0265 43.7611 77.0471C43.5878 77.0671 43.432 77.084 43.2943 77.0959C43.1567 77.1078 43.0359 77.1128 42.9308 77.1128V77.308H52.458V73.4526H52.264C51.9893 74.2447 51.5607 75.0137 50.9789 75.762C50.3976 76.509 49.9083 76.9088 49.5123 76.9626C49.1169 77.0146 48.7408 77.0434 48.3854 77.0471C48.0301 77.0515 47.6822 77.0577 47.3424 77.0653V72.8951L47.8517 72.9195C48.3204 72.9677 48.6739 73.1936 48.9123 73.5984C49.1506 74.002 49.2701 74.475 49.2701 75.0174H49.5004V70.6045H49.2701C49.2701 71.1376 49.1506 71.6 48.9123 71.9923C48.6739 72.3846 48.3204 72.6042 47.8517 72.653L47.3424 72.6774L47.3675 68.7012H47.4751V68.7006Z" fill="#1D1B1B"/>
<path d="M56.3722 76.3264C56.3478 76.5848 56.2896 76.7643 56.1964 76.8645C56.1038 76.9664 55.9761 77.0265 55.8147 77.0471C55.6527 77.0672 55.4831 77.0891 55.306 77.1129H54.93V77.3081H60.7482V77.1129L60.13 77.0653C59.8797 77.0321 59.7014 76.9602 59.5969 76.8469C59.4918 76.7331 59.4274 76.5479 59.4023 76.2888L59.3779 75.7314V72.8945C59.5475 72.8945 59.7171 72.8989 59.8872 72.907C60.0568 72.9158 60.2145 72.9583 60.3603 73.0334C60.5054 73.1123 60.6224 73.3851 60.7119 73.855C60.7682 74.2773 60.8433 74.7935 60.9359 75.406C61.0291 76.0167 61.2712 76.5122 61.6635 76.8882C62.0552 77.2655 62.5783 77.4526 63.2327 77.4526C63.6532 77.4526 64.043 77.3744 64.4021 77.2167C64.7625 77.059 65.0391 76.8526 65.233 76.5985C65.4276 76.3439 65.5477 76.0986 65.5965 75.8659C65.6447 75.6306 65.6691 75.3159 65.6691 74.9186H65.4745C65.4745 75.2665 65.4401 75.5762 65.3719 75.8458C65.3037 76.118 65.1636 76.2519 64.954 76.2519C64.7919 76.2519 64.6668 76.1775 64.5773 76.0273C64.4878 75.8778 64.3871 75.6225 64.2745 75.2602C64.1619 74.8998 64.0142 74.5676 63.8321 74.2635C63.6501 73.9588 63.4473 73.7298 63.2202 73.5759C62.9937 73.422 62.741 73.3043 62.4625 73.2224C62.1841 73.1417 61.8381 73.0566 61.4264 72.9671V72.8826C62.1046 72.8826 62.5996 72.8251 62.9111 72.7131C63.2221 72.5992 63.483 72.4415 63.6932 72.2401C63.9035 72.0386 64.0593 71.7952 64.16 71.5124C64.2607 71.2302 64.3114 70.9474 64.3114 70.6646C64.3114 70.2848 64.2244 69.9514 64.0505 69.6642C63.8772 69.3776 63.6432 69.1367 63.3479 68.9428C63.0525 68.7494 62.6709 68.6199 62.2023 68.5555C61.733 68.4904 61.1236 68.4591 60.3721 68.4591L54.9538 68.471V68.6656C55.0664 68.6737 55.1884 68.6787 55.3173 68.6831C55.4475 68.6869 55.6007 68.7006 55.7778 68.7257C55.9555 68.7501 56.0925 68.8145 56.1901 68.9196C56.2865 69.0247 56.3472 69.2062 56.3716 69.4652L56.396 70.0233V75.7683L56.3722 76.3264ZM59.3779 68.6775C59.5156 68.6856 59.6733 68.6925 59.8509 68.7006C60.0286 68.71 60.2307 68.7457 60.4572 68.8101C60.6831 68.8752 60.8771 69.0998 61.0391 69.4834C61.2012 69.8663 61.2819 70.2567 61.2819 70.6527C61.2819 71.137 61.203 71.5781 61.0454 71.9735C60.8877 72.3702 60.6556 72.5917 60.3484 72.6399C60.2032 72.6649 60.0174 72.6768 59.7909 72.6768H59.3786V68.6775H59.3779Z" fill="#1D1B1B"/>
<path d="M67.6212 68.6656L68.2763 68.7144C68.5253 68.7463 68.6943 68.8126 68.7787 68.914C68.8644 69.0141 68.9189 69.1942 68.9427 69.452L68.9671 70.0114V75.7676L68.9427 76.3263C68.9189 76.5766 68.8594 76.7549 68.7668 76.8594C68.6742 76.9652 68.5172 77.0308 68.2945 77.0596C68.0717 77.0884 67.9128 77.104 67.8152 77.1078C67.7188 77.1115 67.6413 77.1134 67.5849 77.1134V77.3086H73.2942V77.1134L72.6642 77.0771C72.4139 77.0452 72.2406 76.9827 72.1492 76.8894C72.0566 76.7975 71.9978 76.6166 71.9734 76.3501L71.949 75.7926V69.9864L71.9734 69.4283C71.9978 69.1536 72.0529 68.9702 72.1374 68.877C72.2225 68.7838 72.3901 68.7256 72.6398 68.7006L73.2949 68.6649V68.4703H67.6225V68.6656H67.6212Z" fill="#1D1B1B"/>
</svg>
